<svg width="388" height="184" viewBox="0 0 388 184" fill="none" xmlns="http://www.w3.org/2000/svg">
<g clip-path="url(#clip0_0_125)">
<rect width="388" height="184" fill="#1B1B1B"/>
<path d="M77.8094 -7.04155C84.9747 8.47348 68.2703 11.3653 61.192 16.3642C61.0859 16.4391 60.9369 16.3894 60.8851 16.2701C54.1452 0.75882 70.4372 -2.13119 77.504 -7.13118C77.6085 -7.20511 77.7557 -7.15791 77.8094 -7.04155Z" fill="#121212"/>
<path d="M45.6775 26.0258C50.7881 37.1476 38.7915 39.2585 33.7001 42.8617C33.6238 42.9157 33.5169 42.8803 33.48 42.7948C28.6746 31.6748 40.3753 29.5661 45.4585 25.9621C45.5336 25.9088 45.6391 25.9424 45.6775 26.0258Z" fill="#121212"/>
<path d="M18.7165 52.9868C23.8272 64.1085 11.8306 66.2195 6.73914 69.8226C6.66282 69.8766 6.55598 69.8412 6.51903 69.7557C1.7137 58.6358 13.4143 56.527 18.4975 52.9231C18.5727 52.8698 18.6782 52.9034 18.7165 52.9868Z" fill="#121212"/>
<path d="M428.222 151.057C442.888 182.944 408.504 188.977 393.915 199.297C393.696 199.452 393.39 199.35 393.284 199.105C379.493 167.223 413.029 161.196 427.594 150.874C427.809 150.721 428.112 150.817 428.222 151.057Z" fill="#121212"/>
<path d="M129.165 44.3081C136.33 59.8231 119.626 62.7149 112.547 67.7138C112.441 67.7887 112.292 67.739 112.241 67.6197C105.501 52.1084 121.793 49.2184 128.859 44.2184C128.964 44.1445 129.111 44.1917 129.165 44.3081Z" fill="#121212"/>
<path d="M170.547 1.3651C181.101 24.2348 156.471 28.5094 146.032 35.8841C145.876 35.9947 145.656 35.9214 145.58 35.7456C135.653 12.8811 159.675 8.60951 170.097 1.23316C170.251 1.12408 170.468 1.19358 170.547 1.3651Z" fill="#121212"/>
<path d="M223.589 -53.5782C238.255 -21.6904 203.871 -15.6578 189.282 -5.33736C189.063 -5.18267 188.757 -5.28432 188.651 -5.52948C174.86 -37.4117 208.396 -43.4385 222.961 -53.7611C223.176 -53.9138 223.479 -53.8174 223.589 -53.5782Z" fill="#121212"/>
<path d="M97.031 77.3754C102.142 88.4972 90.145 90.6081 85.0536 94.2113C84.9773 94.2653 84.8704 94.2299 84.8335 94.1444C80.0282 83.0244 91.7288 80.9157 96.812 77.3117C96.8871 77.2585 96.9927 77.292 97.031 77.3754Z" fill="#121212"/>
<path d="M70.0681 104.338C75.1787 115.46 63.1821 117.571 58.0907 121.174C58.0144 121.228 57.9075 121.193 57.8706 121.107C53.0653 109.987 64.7659 107.879 69.8491 104.275C69.9242 104.221 70.0298 104.255 70.0681 104.338Z" fill="#121212"/>
<path d="M42.9099 131.497C48.0205 142.618 36.0239 144.729 30.9325 148.332C30.8562 148.386 30.7493 148.351 30.7124 148.265C25.9071 137.146 37.6077 135.037 42.6909 131.433C42.766 131.38 42.8716 131.413 42.9099 131.497Z" fill="#121212"/>
<path d="M16.3408 159.065C19.7412 166.541 11.6465 168.012 8.20032 170.461C8.14867 170.498 8.07679 170.474 8.05222 170.417C4.85757 162.941 12.7527 161.473 16.1934 159.023C16.2443 158.987 16.3153 159.009 16.3408 159.065Z" fill="#121212"/>
<path d="M180.255 95.4057C187.42 110.921 170.716 113.813 163.637 118.811C163.531 118.886 163.382 118.837 163.33 118.717C156.59 103.206 172.882 100.316 179.949 95.3161C180.054 95.2421 180.201 95.2893 180.255 95.4057Z" fill="#121212"/>
<path d="M221.641 52.4647C232.195 75.3344 207.565 79.609 197.126 86.9837C196.969 87.0943 196.75 87.021 196.673 86.8452C186.747 63.9807 210.769 59.7091 221.191 52.3328C221.345 52.2237 221.562 52.2932 221.641 52.4647Z" fill="#121212"/>
<path d="M340.23 -70.0955C359.45 -28.4362 314.58 -20.6416 295.56 -7.20372C295.275 -7.00229 294.875 -7.13569 294.736 -7.45597C276.659 -49.1059 320.422 -56.8948 339.41 -70.3357C339.691 -70.5345 340.086 -70.4079 340.23 -70.0955Z" fill="#121212"/>
<path d="M274.685 -2.48057C289.351 29.4073 254.967 35.4398 240.378 45.7603C240.159 45.915 239.853 45.8133 239.747 45.5682C225.955 13.686 259.492 7.65919 274.057 -2.66348C274.272 -2.81613 274.575 -2.71974 274.685 -2.48057Z" fill="#121212"/>
<path d="M148.125 128.471C153.235 139.593 141.239 141.704 136.147 145.307C136.071 145.361 135.964 145.326 135.927 145.24C131.122 134.12 142.823 132.011 147.906 128.407C147.981 128.354 148.086 128.388 148.125 128.471Z" fill="#121212"/>
<path d="M121.068 155.536C126.179 166.657 114.182 168.768 109.091 172.371C109.014 172.425 108.908 172.39 108.871 172.305C104.065 161.185 115.766 159.076 120.849 155.472C120.924 155.419 121.03 155.452 121.068 155.536Z" fill="#121212"/>
<path d="M94.0075 182.594C99.1182 193.716 87.1216 195.827 82.0302 199.43C81.9538 199.484 81.847 199.449 81.81 199.363C77.0047 188.243 88.7054 186.134 93.7885 182.53C93.8637 182.477 93.9692 182.511 94.0075 182.594Z" fill="#121212"/>
<path d="M231.362 146.509C238.527 162.024 221.823 164.916 214.745 169.915C214.639 169.99 214.49 169.94 214.438 169.821C207.698 154.31 223.99 151.42 231.057 146.42C231.161 146.346 231.308 146.393 231.362 146.509Z" fill="#121212"/>
<path d="M272.748 103.566C283.302 126.436 258.672 130.711 248.233 138.085C248.077 138.196 247.857 138.123 247.781 137.947C237.854 115.082 261.876 110.811 272.298 103.434C272.452 103.325 272.669 103.395 272.748 103.566Z" fill="#121212"/>
<path d="M391.332 -18.9958C410.551 22.6635 365.681 30.4581 346.662 43.896C346.376 44.0974 345.976 43.964 345.837 43.6437C327.76 1.99379 371.523 -5.79515 390.512 -19.236C390.793 -19.4348 391.188 -19.3082 391.332 -18.9958Z" fill="#121212"/>
<path d="M325.79 48.6229C340.457 80.5108 306.072 86.5433 291.483 96.8638C291.265 97.0185 290.958 96.9169 290.852 96.6717C277.061 64.7895 310.597 58.7627 325.162 48.44C325.378 48.2874 325.68 48.3838 325.79 48.6229Z" fill="#121212"/>
<path d="M199.228 179.577C204.339 190.698 192.342 192.809 187.251 196.412C187.175 196.466 187.068 196.431 187.031 196.346C182.225 185.226 193.926 183.117 199.009 179.513C199.084 179.46 199.19 179.493 199.228 179.577Z" fill="#121212"/>
<path d="M323.846 154.666C334.4 177.536 309.77 181.81 299.331 189.185C299.174 189.295 298.955 189.222 298.878 189.046C288.952 166.182 312.974 161.91 323.396 154.534C323.55 154.425 323.767 154.494 323.846 154.666Z" fill="#121212"/>
<path d="M442.43 32.1037C461.649 73.7631 416.779 81.5576 397.759 94.9955C397.474 95.1969 397.074 95.0635 396.935 94.7433C378.858 53.0933 422.621 45.3044 441.61 31.8635C441.89 31.6648 442.286 31.7913 442.43 32.1037Z" fill="#121212"/>
<path d="M376.89 99.7206C391.556 131.608 357.172 137.641 342.583 147.961C342.364 148.116 342.058 148.015 341.952 147.769C328.161 115.887 361.697 109.86 376.262 99.5377C376.477 99.3851 376.78 99.4814 376.89 99.7206Z" fill="#121212"/>
<path d="M271.364 156.303C281.917 179.172 257.288 183.447 246.848 190.822C246.692 190.932 246.472 190.859 246.396 190.683C236.469 167.819 260.491 163.547 270.913 156.171C271.068 156.062 271.284 156.131 271.364 156.303Z" fill="#121212"/>
<path d="M389.947 33.7406C409.167 75.3999 364.296 83.1945 345.277 96.6324C344.992 96.8338 344.592 96.7004 344.453 96.3801C326.376 54.7302 370.139 46.9413 389.127 33.5004C389.408 33.3016 389.803 33.4282 389.947 33.7406Z" fill="#121212"/>
<path d="M324.405 101.359C339.072 133.247 304.687 139.28 290.098 149.6C289.88 149.755 289.573 149.653 289.467 149.408C275.676 117.526 309.212 111.499 323.777 101.176C323.993 101.024 324.295 101.12 324.405 101.359Z" fill="#121212"/>
<path d="M441.045 84.8401C460.264 126.499 415.394 134.294 396.374 147.732C396.089 147.933 395.689 147.8 395.55 147.48C377.473 105.83 421.236 98.0407 440.225 84.5998C440.506 84.4011 440.901 84.5276 441.045 84.8401Z" fill="#121212"/>
<path d="M375.505 152.457C390.171 184.345 355.787 190.377 341.198 200.698C340.979 200.852 340.673 200.751 340.567 200.506C326.776 168.623 360.312 162.597 374.877 152.274C375.092 152.121 375.395 152.218 375.505 152.457Z" fill="#121212"/>
<path d="M76.4246 45.6948C83.5899 61.2098 66.8856 64.1016 59.8072 69.1005C59.7011 69.1755 59.5521 69.1257 59.5003 69.0064C52.7604 53.4951 69.0524 50.6051 76.1192 45.6052C76.2238 45.5312 76.3709 45.5784 76.4246 45.6948Z" fill="#121212"/>
<path d="M117.811 2.74987C128.365 25.6196 103.735 29.8942 93.2957 37.2689C93.1393 37.3794 92.9196 37.3062 92.8433 37.1303C82.9165 14.2658 106.938 9.99427 117.361 2.61793C117.515 2.50885 117.732 2.57834 117.811 2.74987Z" fill="#121212"/>
<path d="M170.853 -52.1915C185.519 -20.3037 151.135 -14.2711 136.546 -3.95065C136.327 -3.79596 136.021 -3.8976 135.915 -4.14277C122.123 -36.025 155.66 -42.0517 170.225 -52.3744C170.44 -52.5271 170.743 -52.4307 170.853 -52.1915Z" fill="#121212"/>
<path d="M44.2927 78.7622C49.4033 89.8839 37.4067 91.9948 32.3153 95.598C32.239 95.652 32.1322 95.6166 32.0952 95.5311C27.2899 84.4111 38.9905 82.3024 44.0737 78.6985C44.1489 78.6452 44.2544 78.6787 44.2927 78.7622Z" fill="#121212"/>
<path d="M17.2322 105.821C22.3428 116.942 10.3462 119.053 5.25477 122.657C5.17845 122.711 5.07161 122.675 5.03466 122.59C0.229328 111.47 11.93 109.361 17.0131 105.757C17.0883 105.704 17.1938 105.737 17.2322 105.821Z" fill="#121212"/>
<path d="M127.524 96.7945C134.69 112.31 117.985 115.201 110.907 120.2C110.801 120.275 110.652 120.225 110.6 120.106C103.86 104.595 120.152 101.705 127.219 96.7049C127.323 96.6309 127.471 96.6781 127.524 96.7945Z" fill="#121212"/>
<path d="M168.911 53.8515C179.464 76.7213 154.835 80.9958 144.395 88.3706C144.239 88.4811 144.019 88.4078 143.943 88.232C134.016 65.3675 158.038 61.0959 168.46 53.7196C168.615 53.6105 168.831 53.68 168.911 53.8515Z" fill="#121212"/>
<path d="M287.494 -68.7104C306.714 -27.0511 261.844 -19.2565 242.824 -5.81861C242.539 -5.61719 242.139 -5.75059 242 -6.07086C223.923 -47.7208 267.686 -55.5097 286.674 -68.9506C286.955 -69.1494 287.35 -69.0228 287.494 -68.7104Z" fill="#121212"/>
<path d="M221.954 -1.09374C236.621 30.7941 202.236 36.8267 187.647 47.1471C187.429 47.3018 187.122 47.2002 187.016 46.955C173.225 15.0728 206.761 9.04603 221.326 -1.27665C221.542 -1.4293 221.844 -1.3329 221.954 -1.09374Z" fill="#121212"/>
<path d="M95.3924 129.862C100.503 140.984 88.5064 143.095 83.415 146.698C83.3387 146.752 83.2319 146.716 83.1949 146.631C78.3896 135.511 90.0902 133.402 95.1734 129.798C95.2486 129.745 95.3541 129.778 95.3924 129.862Z" fill="#121212"/>
<path d="M68.3338 156.92C73.4445 168.042 61.4478 170.153 56.3564 173.756C56.2801 173.81 56.1733 173.775 56.1363 173.689C51.331 162.569 63.0316 160.461 68.1148 156.857C68.19 156.803 68.2955 156.837 68.3338 156.92Z" fill="#121212"/>
<path d="M41.8995 184.626C45.2999 192.102 37.2052 193.573 33.759 196.022C33.7074 196.058 33.6355 196.035 33.6109 195.978C30.4163 188.501 38.3114 187.033 41.7521 184.584C41.803 184.548 41.874 184.57 41.8995 184.626Z" fill="#121212"/>
<path d="M178.624 147.894C185.789 163.409 169.085 166.301 162.006 171.3C161.9 171.375 161.751 171.325 161.7 171.206C154.96 155.694 171.252 152.804 178.318 147.804C178.423 147.73 178.57 147.778 178.624 147.894Z" fill="#121212"/>
<path d="M220.01 104.951C230.564 127.821 205.934 132.095 195.495 139.47C195.338 139.581 195.119 139.507 195.043 139.332C185.116 116.467 209.138 112.195 219.56 104.819C219.714 104.71 219.931 104.78 220.01 104.951Z" fill="#121212"/>
<path d="M338.594 -17.6112C357.813 24.0482 312.943 31.8427 293.923 45.2806C293.638 45.482 293.238 45.3486 293.099 45.0284C275.022 3.37841 318.785 -4.41052 337.774 -17.8514C338.055 -18.0501 338.45 -17.9236 338.594 -17.6112Z" fill="#121212"/>
<path d="M273.054 50.0058C287.72 81.8936 253.336 87.9262 238.747 98.2466C238.528 98.4013 238.222 98.2997 238.116 98.0545C224.325 66.1723 257.861 60.1455 272.426 49.8229C272.641 49.6702 272.944 49.7666 273.054 50.0058Z" fill="#121212"/>
<path d="M146.492 180.961C151.603 192.083 139.606 194.194 134.515 197.797C134.438 197.851 134.331 197.816 134.294 197.73C129.489 186.61 141.19 184.501 146.273 180.897C146.348 180.844 146.454 180.878 146.492 180.961Z" fill="#121212"/>
<rect width="390" height="184" fill="url(#paint0_linear_0_125)"/>
</g>
<defs>
<linearGradient id="paint0_linear_0_125" x1="172" y1="118.286" x2="541.901" y2="-269.306" gradientUnits="userSpaceOnUse">
<stop stop-color="#1B1B1B"/>
<stop offset="1" stop-color="#1B1B1B" stop-opacity="0"/>
</linearGradient>
<clipPath id="clip0_0_125">
<rect width="388" height="184" fill="white"/>
</clipPath>
</defs>
</svg>
