<svg width="792" height="360" viewBox="0 0 792 360" fill="none" xmlns="http://www.w3.org/2000/svg">
<g clip-path="url(#clip0_1_419)">
<path d="M246.314 -3.48232C258.981 23.9448 229.451 29.0569 216.939 37.8938C216.751 38.0263 216.488 37.9383 216.396 37.7275C204.481 10.307 233.282 5.19811 245.775 -3.64076C245.959 -3.77147 246.219 -3.68803 246.314 -3.48232Z" fill="#080808"/>
<path d="M319.474 -79.3941C338.131 -38.9655 294.591 -31.4091 276.137 -18.3722C275.86 -18.1768 275.472 -18.3063 275.337 -18.6171C257.789 -59.0364 300.254 -66.5876 318.679 -79.6274C318.951 -79.8202 319.334 -79.6974 319.474 -79.3941Z" fill="#080808"/>
<path d="M189.51 54.9734C198.545 74.6342 177.338 78.3659 168.337 84.7354C168.202 84.8309 168.013 84.7683 167.948 84.6172C159.453 64.9596 180.137 61.2317 189.123 54.8608C189.256 54.7666 189.443 54.826 189.51 54.9734Z" fill="#080808"/>
<path d="M141.847 102.636C150.882 122.297 129.674 126.028 120.674 132.398C120.539 132.493 120.35 132.431 120.285 132.28C111.79 112.622 132.474 108.894 141.46 102.523C141.593 102.429 141.78 102.488 141.847 102.636Z" fill="#080808"/>
<path d="M93.8361 150.648C102.871 170.308 81.6632 174.04 72.6627 180.41C72.5278 180.505 72.3389 180.443 72.2736 180.291C63.7789 160.634 84.463 156.906 93.4489 150.535C93.5818 150.441 93.7683 150.5 93.8361 150.648Z" fill="#080808"/>
<path d="M46.1307 198.643C52.1419 211.86 37.8323 214.46 31.7402 218.789C31.6489 218.854 31.5218 218.812 31.4784 218.711C25.831 205.494 39.7879 202.899 45.8702 198.569C45.9601 198.505 46.0856 198.544 46.1307 198.643Z" fill="#080808"/>
<path d="M771.997 373.13C790.654 413.559 747.114 421.115 728.66 434.152C728.383 434.348 727.995 434.218 727.86 433.907C710.312 393.488 752.777 385.937 771.201 372.897C771.474 372.704 771.857 372.827 771.997 373.13Z" fill="#080808"/>
<path d="M865.765 276C891.692 332.371 830.908 343.035 805.118 361.279C804.732 361.553 804.19 361.373 804.003 360.94C779.623 304.579 838.907 293.925 864.655 275.677C865.036 275.407 865.571 275.577 865.765 276Z" fill="#080808"/>
<path d="M337.092 87.2964C349.759 114.724 320.229 119.836 307.716 128.673C307.529 128.805 307.265 128.717 307.174 128.506C295.259 101.086 324.06 95.9768 336.552 87.138C336.737 87.0072 336.997 87.0907 337.092 87.2964Z" fill="#080808"/>
<path d="M410.253 11.3847C428.909 51.8133 385.369 59.3698 366.915 72.4066C366.639 72.602 366.25 72.4725 366.115 72.1617C348.567 31.7424 391.033 24.1912 409.457 11.1515C409.729 10.9586 410.113 11.0815 410.253 11.3847Z" fill="#080808"/>
<path d="M504.02 -85.7455C529.947 -29.3749 469.163 -18.7106 443.373 -0.466336C442.987 -0.192869 442.445 -0.37256 442.258 -0.805952C417.878 -57.1666 477.162 -67.8206 502.91 -86.0688C503.291 -86.3386 503.826 -86.1682 504.02 -85.7455Z" fill="#080808"/>
<path d="M280.289 145.752C289.323 165.413 268.116 169.145 259.115 175.514C258.98 175.61 258.792 175.547 258.726 175.396C250.231 155.738 270.916 152.01 279.901 145.64C280.034 145.545 280.221 145.605 280.289 145.752Z" fill="#080808"/>
<path d="M232.626 193.415C241.661 213.076 220.453 216.807 211.453 223.177C211.318 223.272 211.129 223.21 211.064 223.059C202.569 203.401 223.253 199.673 232.239 193.302C232.372 193.208 232.558 193.267 232.626 193.415Z" fill="#080808"/>
<path d="M184.614 241.427C193.649 261.087 172.441 264.819 163.441 271.189C163.306 271.284 163.117 271.221 163.052 271.07C154.557 251.413 175.241 247.685 184.227 241.314C184.36 241.22 184.546 241.279 184.614 241.427Z" fill="#080808"/>
<path d="M137.649 290.162C143.66 303.378 129.351 305.978 123.258 310.308C123.167 310.372 123.04 310.331 122.997 310.229C117.349 297.013 131.306 294.418 137.388 290.088C137.478 290.024 137.604 290.063 137.649 290.162Z" fill="#080808"/>
<path d="M427.424 177.63C440.091 205.057 410.561 210.17 398.049 219.006C397.861 219.139 397.598 219.051 397.506 218.84C385.591 191.42 414.392 186.311 426.885 177.472C427.069 177.341 427.329 177.425 427.424 177.63Z" fill="#080808"/>
<path d="M500.585 101.719C519.242 142.147 475.702 149.704 457.248 162.74C456.971 162.936 456.583 162.806 456.448 162.496C438.9 122.076 481.365 114.525 499.789 101.485C500.062 101.292 500.445 101.415 500.585 101.719Z" fill="#080808"/>
<path d="M710.215 -114.944C744.191 -41.2998 664.87 -27.5208 631.248 -3.76555C630.744 -3.40948 630.036 -3.6453 629.791 -4.21147C597.835 -77.8393 675.197 -91.6084 708.765 -115.369C709.262 -115.72 709.96 -115.497 710.215 -114.944Z" fill="#080808"/>
<path d="M594.352 4.58841C620.279 60.959 559.495 71.6232 533.705 89.8675C533.318 90.141 532.777 89.9613 532.59 89.5279C508.21 33.1673 567.494 22.5133 593.242 4.26507C593.623 3.99523 594.158 4.16563 594.352 4.58841Z" fill="#080808"/>
<path d="M370.621 236.086C379.655 255.747 358.448 259.479 349.447 265.848C349.313 265.944 349.124 265.881 349.058 265.73C340.564 246.072 361.248 242.344 370.234 235.973C370.367 235.879 370.553 235.939 370.621 236.086Z" fill="#080808"/>
<path d="M322.784 283.923C331.819 303.584 310.611 307.315 301.611 313.685C301.476 313.78 301.287 313.718 301.222 313.567C292.727 293.909 313.411 290.181 322.397 283.81C322.53 283.716 322.716 283.776 322.784 283.923Z" fill="#080808"/>
<path d="M274.947 331.76C283.982 351.42 262.774 355.152 253.774 361.522C253.639 361.617 253.45 361.555 253.385 361.403C244.89 341.746 265.574 338.018 274.56 331.647C274.693 331.553 274.879 331.612 274.947 331.76Z" fill="#080808"/>
<path d="M517.759 267.964C530.426 295.391 500.896 300.503 488.383 309.34C488.196 309.472 487.932 309.384 487.841 309.174C475.926 281.753 504.727 276.644 517.219 267.805C517.404 267.675 517.664 267.758 517.759 267.964Z" fill="#080808"/>
<path d="M590.919 192.052C609.576 232.481 566.036 240.037 547.582 253.074C547.305 253.269 546.917 253.14 546.782 252.829C529.234 212.41 571.699 204.859 590.123 191.819C590.396 191.626 590.779 191.749 590.919 192.052Z" fill="#080808"/>
<path d="M800.55 -24.611C834.525 49.0335 755.205 62.8124 721.583 86.5677C721.079 86.9238 720.371 86.688 720.126 86.1218C688.17 12.4939 765.532 -1.27517 799.1 -25.0356C799.597 -25.387 800.295 -25.1633 800.55 -24.611Z" fill="#080808"/>
<path d="M684.687 94.922C710.614 151.293 649.83 161.957 624.04 180.201C623.653 180.475 623.112 180.295 622.924 179.861C598.544 123.501 657.829 112.847 683.577 94.5986C683.958 94.3288 684.492 94.4992 684.687 94.922Z" fill="#080808"/>
<path d="M460.955 326.419C469.99 346.08 448.782 349.812 439.782 356.182C439.647 356.277 439.458 356.214 439.393 356.063C430.898 336.406 451.582 332.678 460.568 326.307C460.701 326.213 460.887 326.272 460.955 326.419Z" fill="#080808"/>
<path d="M608.092 358.297C620.759 385.724 591.229 390.837 578.716 399.673C578.529 399.806 578.265 399.718 578.174 399.507C566.259 372.087 595.06 366.978 607.552 358.139C607.737 358.008 607.997 358.092 608.092 358.297Z" fill="#080808"/>
<path d="M681.252 282.386C699.909 322.814 656.369 330.371 637.915 343.408C637.638 343.603 637.25 343.473 637.115 343.163C619.567 302.743 662.032 295.192 680.456 282.152C680.729 281.96 681.112 282.082 681.252 282.386Z" fill="#080808"/>
<path d="M890.882 65.7225C924.857 139.367 845.537 153.146 811.915 176.901C811.411 177.257 810.703 177.021 810.458 176.455C778.502 102.827 855.864 89.0583 889.432 65.2978C889.929 64.9465 890.627 65.1702 890.882 65.7225Z" fill="#080808"/>
<path d="M775.02 185.255C800.947 241.626 740.163 252.29 714.373 270.534C713.986 270.808 713.445 270.628 713.257 270.195C688.878 213.834 748.162 203.18 773.91 184.932C774.291 184.662 774.825 184.832 775.02 185.255Z" fill="#080808"/>
<path d="M515.311 361.19C527.978 388.617 498.448 393.729 485.935 402.566C485.748 402.698 485.484 402.61 485.393 402.4C473.478 374.979 502.279 369.87 514.771 361.031C514.956 360.901 515.216 360.984 515.311 361.19Z" fill="#080808"/>
<path d="M588.471 285.278C607.128 325.707 563.588 333.263 545.134 346.3C544.857 346.495 544.469 346.366 544.334 346.055C526.785 305.636 569.251 298.084 587.675 285.045C587.948 284.852 588.331 284.975 588.471 285.278Z" fill="#080808"/>
<path d="M798.102 68.6151C832.077 142.26 752.757 156.039 719.134 179.794C718.63 180.15 717.923 179.914 717.677 179.348C685.721 105.72 763.084 91.9509 796.652 68.1905C797.148 67.8391 797.847 68.0628 798.102 68.6151Z" fill="#080808"/>
<path d="M682.239 188.148C708.166 244.518 647.381 255.183 621.592 273.427C621.205 273.7 620.664 273.521 620.476 273.087C596.096 216.727 655.381 206.073 681.129 187.824C681.509 187.555 682.044 187.725 682.239 188.148Z" fill="#080808"/>
<path d="M678.804 375.611C697.461 416.04 653.921 423.596 635.467 436.633C635.19 436.828 634.802 436.699 634.667 436.388C617.118 395.969 659.584 388.417 678.008 375.378C678.281 375.185 678.664 375.308 678.804 375.611Z" fill="#080808"/>
<path d="M888.435 158.948C922.41 232.592 843.09 246.371 809.467 270.127C808.963 270.483 808.256 270.247 808.01 269.681C776.054 196.053 853.417 182.284 886.985 158.523C887.481 158.172 888.18 158.396 888.435 158.948Z" fill="#080808"/>
<path d="M772.572 278.481C798.499 334.851 737.714 345.516 711.925 363.76C711.538 364.033 710.997 363.854 710.809 363.42C686.429 307.06 745.714 296.406 771.462 278.157C771.842 277.888 772.377 278.058 772.572 278.481Z" fill="#080808"/>
<path d="M243.866 89.7444C256.533 117.171 227.003 122.284 214.49 131.121C214.303 131.253 214.039 131.165 213.948 130.954C202.033 103.534 230.834 98.4248 243.326 89.5859C243.511 89.4552 243.771 89.5387 243.866 89.7444Z" fill="#080808"/>
<path d="M317.027 13.8328C335.683 54.2614 292.143 61.8178 273.689 74.8547C273.413 75.0501 273.024 74.9206 272.889 74.6098C255.341 34.1905 297.807 26.6393 316.231 13.5995C316.503 13.4067 316.887 13.5296 317.027 13.8328Z" fill="#080808"/>
<path d="M410.794 -83.2974C436.721 -26.9268 375.937 -16.2625 350.147 1.98177C349.76 2.25524 349.219 2.07554 349.031 1.64215C324.651 -54.7185 383.936 -65.3725 409.684 -83.6207C410.065 -83.8905 410.599 -83.7201 410.794 -83.2974Z" fill="#080808"/>
<path d="M187.063 148.2C196.097 167.861 174.89 171.593 165.889 177.962C165.754 178.058 165.566 177.995 165.5 177.844C157.005 158.186 177.69 154.459 186.675 148.088C186.808 147.993 186.995 148.053 187.063 148.2Z" fill="#080808"/>
<path d="M139.226 196.037C148.26 215.698 127.053 219.43 118.052 225.799C117.917 225.895 117.729 225.832 117.663 225.681C109.168 206.023 129.853 202.295 138.839 195.925C138.971 195.83 139.158 195.89 139.226 196.037Z" fill="#080808"/>
<path d="M92.4699 244.982C98.4811 258.198 84.1716 260.798 78.0794 265.127C77.9881 265.192 77.8611 265.151 77.8176 265.049C72.1702 251.833 86.1271 249.238 92.2094 244.908C92.2994 244.844 92.4248 244.883 92.4699 244.982Z" fill="#080808"/>
<path d="M334.199 180.078C346.865 207.505 317.336 212.617 304.823 221.454C304.635 221.587 304.372 221.499 304.28 221.288C292.366 193.867 321.166 188.758 333.659 179.92C333.844 179.789 334.104 179.872 334.199 180.078Z" fill="#080808"/>
<path d="M407.359 104.166C426.016 144.595 382.476 152.151 364.022 165.188C363.745 165.384 363.357 165.254 363.222 164.943C345.674 124.524 388.139 116.973 406.563 103.933C406.836 103.74 407.219 103.863 407.359 104.166Z" fill="#080808"/>
<path d="M616.99 -112.497C650.965 -38.8523 571.645 -25.0733 538.022 -1.31807C537.518 -0.961998 536.811 -1.19782 536.565 -1.76399C504.609 -75.3919 581.972 -89.161 615.54 -112.921C616.036 -113.273 616.735 -113.049 616.99 -112.497Z" fill="#080808"/>
<path d="M501.127 7.03605C527.054 63.4066 466.27 74.0709 440.48 92.3152C440.093 92.5886 439.552 92.4089 439.364 91.9755C414.984 35.6149 474.269 24.9609 500.017 6.71271C500.398 6.44286 500.932 6.61326 501.127 7.03605Z" fill="#080808"/>
<path d="M277.395 238.534C286.43 258.194 265.222 261.926 256.222 268.296C256.087 268.391 255.898 268.329 255.833 268.177C247.338 248.52 268.022 244.792 277.008 238.421C277.141 238.327 277.328 238.386 277.395 238.534Z" fill="#080808"/>
<path d="M229.559 286.37C238.593 306.031 217.386 309.763 208.385 316.132C208.25 316.228 208.061 316.165 207.996 316.014C199.501 296.356 220.185 292.629 229.171 286.258C229.304 286.163 229.491 286.223 229.559 286.37Z" fill="#080808"/>
<path d="M182.829 335.342C188.84 348.559 174.531 351.158 168.439 355.488C168.347 355.553 168.22 355.511 168.177 355.41C162.529 342.193 176.486 339.598 182.569 335.268C182.659 335.204 182.784 335.243 182.829 335.342Z" fill="#080808"/>
<path d="M424.531 270.411C437.198 297.838 407.668 302.951 395.155 311.788C394.968 311.92 394.704 311.832 394.613 311.621C382.698 284.201 411.499 279.092 423.991 270.253C424.176 270.122 424.436 270.206 424.531 270.411Z" fill="#080808"/>
<path d="M497.691 194.5C516.348 234.928 472.808 242.485 454.354 255.522C454.078 255.717 453.689 255.587 453.554 255.277C436.006 214.857 478.471 207.306 496.896 194.266C497.168 194.074 497.552 194.196 497.691 194.5Z" fill="#080808"/>
<path d="M707.323 -22.1632C741.298 51.4812 661.978 65.2602 628.355 89.0155C627.851 89.3715 627.144 89.1357 626.898 88.5695C594.942 14.9417 672.305 1.17257 705.873 -22.5879C706.369 -22.9393 707.068 -22.7156 707.323 -22.1632Z" fill="#080808"/>
<path d="M591.46 97.3694C617.387 153.74 556.603 164.404 530.813 182.648C530.427 182.922 529.885 182.742 529.698 182.309C505.318 125.948 564.602 115.294 590.35 97.046C590.731 96.7762 591.266 96.9466 591.46 97.3694Z" fill="#080808"/>
<path d="M367.728 328.867C376.762 348.528 355.555 352.26 346.554 358.629C346.419 358.725 346.23 358.662 346.165 358.511C337.67 338.853 358.354 335.125 367.34 328.754C367.473 328.66 367.66 328.72 367.728 328.867Z" fill="#080808"/>
<rect width="792" height="360" fill="url(#paint0_linear_1_419)"/>
</g>
<defs>
<linearGradient id="paint0_linear_1_419" x1="161.5" y1="186" x2="1765.79" y2="-687.095" gradientUnits="userSpaceOnUse">
<stop stop-color="#121212"/>
<stop offset="1" stop-color="#121212" stop-opacity="0"/>
</linearGradient>
<clipPath id="clip0_1_419">
<rect width="792" height="360" fill="white"/>
</clipPath>
</defs>
</svg>
