<svg width="73" height="73" viewBox="0 0 73 73" fill="none" xmlns="http://www.w3.org/2000/svg">
<path d="M36.5 4.5625C29.8472 4.57035 23.469 7.21667 18.7647 11.921C14.0604 16.6252 11.4141 23.0034 11.4063 29.6562C11.3983 35.093 13.1742 40.3822 16.4615 44.7125C16.4615 44.7125 17.1459 45.6136 17.2577 45.7436L36.5 68.4375L55.7515 45.7322C55.8519 45.6113 56.5385 44.7125 56.5385 44.7125L56.5408 44.7057C59.8265 40.3772 61.6016 35.0905 61.5938 29.6562C61.5859 23.0034 58.9396 16.6252 54.2353 11.921C49.531 7.21667 43.1529 4.57035 36.5 4.5625ZM44.7125 41.0625L36.5 35.8362L28.2875 41.0625L29.6563 31.7687L22.8125 25.4884L32.3938 24.3318L36.5 15.9688L40.8618 24.3341L50.1875 25.4884L43.3438 31.7687L44.7125 41.0625Z" fill="#FF971D"/>
</svg>
