<svg width="16" height="16" viewBox="0 0 16 16" fill="none" xmlns="http://www.w3.org/2000/svg">
<rect x="1.09375" y="1.09375" width="13.8125" height="13.8125" rx="2" fill="#EB1E3D"/>
<path d="M4.65092 12.4062C4.41048 12.3993 4.19443 12.2566 4.09338 12.0408C3.91914 11.7136 3.93308 11.3203 4.12822 11.0036C4.54638 10.3563 5.3618 9.81331 6.48735 9.43047L6.52568 9.41654L6.5431 9.38174C6.92293 8.623 7.25398 7.84338 7.53972 7.04288L7.55714 6.99763L7.53275 6.95586C7.33064 6.6461 7.17034 6.31198 7.05535 5.96394C6.69294 4.7771 6.99959 3.8513 7.50487 3.64248C7.58154 3.61115 7.66517 3.59375 7.7488 3.59375C7.90909 3.59723 8.06591 3.6564 8.18438 3.76429C8.29589 3.86523 8.38998 3.98008 8.45967 4.11234C8.67921 4.51259 8.57118 5.44535 8.15651 6.74356C8.14954 6.76792 8.13908 6.79228 8.13211 6.81665C8.12514 6.84101 8.11469 6.86885 8.10772 6.89322L8.09727 6.93846L8.12166 6.97675L8.14605 7.01155L8.16696 7.04288C8.62694 7.6798 9.1357 8.28192 9.68628 8.83879L9.71416 8.87011H9.75946H10.0835C10.2438 8.87011 10.3867 8.87011 10.5121 8.88055C11.6447 8.94668 12.3834 9.21816 12.596 9.64625C12.6936 9.85856 12.6761 10.1057 12.5577 10.3075C12.4113 10.5825 12.1465 10.7704 11.8363 10.8122C11.7945 10.8192 11.7527 10.8192 11.7144 10.8192C11.3345 10.8192 10.878 10.6069 10.4285 10.224L10.4111 10.2101C10.4111 10.2101 10.3832 10.1822 10.3414 10.144C10.202 10.0187 9.91627 9.75415 9.55038 9.3887L9.51901 9.35738H9.47371C9.05555 9.37478 8.63739 9.42002 8.2262 9.49311C7.77668 9.56272 7.33412 9.66366 6.89854 9.79591L6.85672 9.80635L6.83582 9.84464C6.64764 10.2205 6.44205 10.5825 6.226 10.9236C5.59876 11.9225 5.08302 12.4062 4.65092 12.4062ZM5.90541 10.1822C5.26771 10.485 4.80425 10.847 4.53245 11.2681C4.48018 11.3552 4.4523 11.4526 4.44881 11.5501C4.44881 11.6266 4.46624 11.7032 4.50108 11.7693C4.54638 11.8703 4.60214 11.919 4.65789 11.919H4.66486C4.72759 11.912 5.08999 11.8111 5.83571 10.6243C5.90192 10.5233 5.96813 10.4224 6.02737 10.3215L6.19463 10.043L5.90541 10.1822ZM10.7352 9.8516C10.8746 9.98038 11.3554 10.3423 11.7283 10.3423H11.7841C11.9374 10.3145 12.0698 10.2136 12.1395 10.0709C12.1778 10.0082 12.1848 9.93165 12.1604 9.86204C12.0698 9.66017 11.5122 9.4235 10.4843 9.36434H10.209L10.4947 9.63233C10.6376 9.76459 10.6968 9.82724 10.7387 9.85508L10.7352 9.8516ZM7.82198 7.65544C7.64774 8.10789 7.44563 8.57775 7.2261 9.0511L7.14247 9.23556L7.34458 9.18683C7.64774 9.11026 7.9544 9.0511 8.25756 9.00585C8.45967 8.97453 8.67224 8.94668 8.89177 8.9258L9.08692 8.9084L8.9545 8.75874C8.77678 8.56731 8.55028 8.30976 8.32029 8.03132L7.88819 7.49185L7.82198 7.65544ZM7.63729 4.12278C7.43518 4.28984 7.22261 4.89196 7.50836 5.8282C7.54669 5.94653 7.5885 6.06487 7.64077 6.17972L7.75228 6.4164L7.82546 6.1658C8.01363 5.508 8.20181 4.65877 8.02757 4.35249C7.97182 4.25156 7.86031 4.08101 7.73835 4.08101H7.63729V4.12278Z" fill="#DEDEDE"/>
</svg>
