<svg width="16" height="16" viewBox="0 0 16 16" fill="none" xmlns="http://www.w3.org/2000/svg">
<path d="M5.24723 5.88488C4.59702 5.50927 3.84922 5.12159 3.00384 4.72182C2.87172 4.65934 2.72005 4.75606 2.72005 4.90221L2.72005 6.06005C2.72005 6.119 2.74629 6.17509 2.79124 6.21324C4.94134 8.03836 6.52368 9.94781 7.53827 11.9416C7.57269 12.0092 7.64187 12.0521 7.71776 12.0521L8.28393 12.0521C8.35898 12.0521 8.42755 12.0102 8.46233 11.9437C9.50509 9.94911 11.0876 8.03894 13.2099 6.21318C13.2542 6.17503 13.28 6.11935 13.28 6.06086L13.28 4.90648C13.28 4.75927 13.1263 4.66259 12.994 4.72707C12.1773 5.12498 11.4453 5.51092 10.798 5.88488C10.0759 6.33179 9.45918 6.76379 8.94773 7.1809L7.97959 7.91515L7.05235 7.1809C6.57099 6.76379 5.96928 6.33179 5.24723 5.88488Z" fill="#4F4F4F"/>
</svg>
