<svg width="16" height="16" viewBox="0 0 16 16" fill="none" xmlns="http://www.w3.org/2000/svg">
<path d="M5.24747 5.88491C4.59726 5.5093 3.84947 5.12162 3.00409 4.72185C2.87197 4.65937 2.7203 4.75609 2.7203 4.90224L2.7203 6.06008C2.7203 6.11903 2.74654 6.17512 2.79148 6.21327C4.94158 8.03839 6.52392 9.94784 7.53851 11.9416C7.57293 12.0093 7.64211 12.0522 7.71801 12.0522L8.28417 12.0522C8.35923 12.0522 8.4278 12.0102 8.46257 11.9437C9.50534 9.94914 11.0879 8.03897 13.2101 6.21321C13.2545 6.17506 13.2803 6.11938 13.2803 6.06089L13.2803 4.90651C13.2803 4.7593 13.1266 4.66262 12.9942 4.7271C12.1776 5.12501 11.4456 5.51095 10.7982 5.88491C10.0762 6.33182 9.45943 6.76382 8.94797 7.18093L7.97983 7.91519L7.0526 7.18093C6.57123 6.76382 5.96952 6.33182 5.24747 5.88491Z" fill="#DEDEDE"/>
</svg>
