<svg width="1005" height="1005" viewBox="0 0 1005 1005" fill="none" xmlns="http://www.w3.org/2000/svg">
<path d="M238.316 307.521C250.983 334.949 221.453 340.061 208.94 348.898C208.753 349.03 208.489 348.942 208.398 348.731C196.483 321.311 225.283 316.202 237.776 307.363C237.961 307.232 238.221 307.316 238.316 307.521Z" fill="#080808"/>
<path d="M311.476 231.61C330.133 272.038 286.593 279.595 268.139 292.632C267.862 292.827 267.474 292.697 267.339 292.387C249.79 251.967 292.256 244.416 310.68 231.376C310.953 231.184 311.336 231.306 311.476 231.61Z" fill="#080808"/>
<path d="M521.107 14.9467C555.082 88.5911 475.762 102.37 442.139 126.125C441.635 126.481 440.928 126.246 440.682 125.679C408.726 52.0516 486.089 38.2825 519.657 14.522C520.153 14.1707 520.852 14.3944 521.107 14.9467Z" fill="#080808"/>
<path d="M405.245 134.479C431.172 190.85 370.387 201.514 344.598 219.758C344.211 220.032 343.67 219.852 343.482 219.419C319.102 163.058 378.387 152.404 404.135 134.156C404.515 133.886 405.05 134.056 405.245 134.479Z" fill="#080808"/>
<path d="M181.514 365.977C190.548 385.638 169.341 389.37 160.341 395.739C160.206 395.835 160.017 395.772 159.951 395.621C151.457 375.963 172.141 372.235 181.127 365.865C181.26 365.77 181.446 365.83 181.514 365.977Z" fill="#080808"/>
<path d="M133.85 413.64C142.884 433.3 121.677 437.032 112.676 443.402C112.542 443.497 112.353 443.435 112.287 443.283C103.793 423.626 124.477 419.898 133.463 413.527C133.596 413.433 133.782 413.492 133.85 413.64Z" fill="#080808"/>
<path d="M85.8381 461.651C94.8726 481.312 73.6652 485.044 64.6648 491.413C64.5298 491.509 64.341 491.446 64.2756 491.295C55.7809 471.638 76.465 467.91 85.4509 461.539C85.5838 461.445 85.7704 461.504 85.8381 461.651Z" fill="#080808"/>
<path d="M38.1332 509.647C44.1444 522.863 29.8349 525.463 23.7427 529.792C23.6514 529.857 23.5244 529.816 23.4809 529.714C17.8335 516.498 31.7904 513.903 37.8727 509.572C37.9626 509.508 38.0881 509.548 38.1332 509.647Z" fill="#080808"/>
<path d="M690.837 760.046C703.504 787.473 673.974 792.585 661.462 801.422C661.274 801.554 661.011 801.466 660.919 801.255C649.004 773.835 677.805 768.726 690.298 759.887C690.482 759.756 690.742 759.84 690.837 760.046Z" fill="#080808"/>
<path d="M763.997 684.134C782.654 724.563 739.114 732.119 720.66 745.156C720.383 745.352 719.995 745.222 719.86 744.911C702.312 704.492 744.777 696.941 763.202 683.901C763.474 683.708 763.857 683.831 763.997 684.134Z" fill="#080808"/>
<path d="M973.628 467.471C1007.6 541.116 928.283 554.895 894.661 578.65C894.157 579.006 893.45 578.77 893.204 578.204C861.248 504.576 938.611 490.807 972.178 467.047C972.675 466.695 973.373 466.919 973.628 467.471Z" fill="#080808"/>
<path d="M857.766 587.004C883.693 643.374 822.909 654.039 797.119 672.283C796.733 672.556 796.191 672.377 796.004 671.943C771.624 615.583 830.908 604.929 856.656 586.68C857.037 586.411 857.572 586.581 857.766 587.004Z" fill="#080808"/>
<path d="M634.035 818.502C643.07 838.163 621.863 841.894 612.862 848.264C612.727 848.359 612.538 848.297 612.473 848.146C603.978 828.488 624.662 824.76 633.648 818.389C633.781 818.295 633.968 818.354 634.035 818.502Z" fill="#080808"/>
<path d="M586.371 866.164C595.406 885.825 574.198 889.557 565.198 895.926C565.063 896.022 564.874 895.959 564.809 895.808C556.314 876.151 576.998 872.423 585.984 866.052C586.117 865.958 586.304 866.017 586.371 866.164Z" fill="#080808"/>
<path d="M538.362 914.176C547.396 933.836 526.189 937.568 517.188 943.938C517.053 944.033 516.864 943.97 516.799 943.819C508.304 924.162 528.988 920.434 537.974 914.063C538.107 913.969 538.294 914.028 538.362 914.176Z" fill="#080808"/>
<path d="M490.655 962.171C496.666 975.388 482.356 977.988 476.264 982.317C476.173 982.382 476.046 982.34 476.002 982.239C470.355 969.022 484.312 966.427 490.394 962.097C490.484 962.033 490.61 962.072 490.655 962.171Z" fill="#080808"/>
<path d="M329.091 398.3C341.758 425.727 312.228 430.839 299.715 439.676C299.528 439.809 299.265 439.721 299.173 439.51C287.258 412.09 316.059 406.981 328.551 398.142C328.736 398.011 328.996 398.095 329.091 398.3Z" fill="#080808"/>
<path d="M402.251 322.388C420.908 362.817 377.368 370.373 358.914 383.41C358.637 383.606 358.249 383.476 358.114 383.165C340.566 342.746 383.031 335.195 401.455 322.155C401.728 321.962 402.111 322.085 402.251 322.388Z" fill="#080808"/>
<path d="M611.882 105.726C645.858 179.37 566.537 193.149 532.915 216.904C532.411 217.26 531.703 217.024 531.458 216.458C499.502 142.83 576.864 129.061 610.432 105.301C610.929 104.95 611.627 105.173 611.882 105.726Z" fill="#080808"/>
<path d="M496.02 225.258C521.947 281.628 461.163 292.293 435.373 310.537C434.986 310.81 434.445 310.631 434.258 310.197C409.878 253.837 469.162 243.183 494.91 224.935C495.291 224.665 495.826 224.835 496.02 225.258Z" fill="#080808"/>
<path d="M272.289 456.756C281.324 476.417 260.116 480.148 251.116 486.518C250.981 486.613 250.792 486.551 250.727 486.4C242.232 466.742 262.916 463.014 271.902 456.643C272.035 456.549 272.222 456.608 272.289 456.756Z" fill="#080808"/>
<path d="M224.627 504.419C233.662 524.079 212.454 527.811 203.454 534.181C203.319 534.276 203.13 534.213 203.065 534.062C194.57 514.405 215.254 510.677 224.24 504.306C224.373 504.212 224.559 504.271 224.627 504.419Z" fill="#080808"/>
<path d="M176.614 552.43C185.648 572.091 164.441 575.822 155.44 582.192C155.305 582.287 155.116 582.225 155.051 582.074C146.556 562.416 167.24 558.688 176.226 552.317C176.359 552.223 176.546 552.282 176.614 552.43Z" fill="#080808"/>
<path d="M129.649 601.166C135.66 614.382 121.35 616.982 115.258 621.311C115.167 621.376 115.04 621.335 114.997 621.233C109.349 608.017 123.306 605.422 129.388 601.092C129.478 601.028 129.604 601.067 129.649 601.166Z" fill="#080808"/>
<path d="M419.427 488.634C432.094 516.061 402.564 521.173 390.052 530.01C389.864 530.143 389.601 530.055 389.509 529.844C377.594 502.423 406.395 497.314 418.888 488.476C419.072 488.345 419.332 488.428 419.427 488.634Z" fill="#080808"/>
<path d="M492.587 412.722C511.244 453.151 467.704 460.707 449.25 473.744C448.973 473.94 448.585 473.81 448.45 473.499C430.902 433.08 473.367 425.529 491.791 412.489C492.064 412.296 492.447 412.419 492.587 412.722Z" fill="#080808"/>
<path d="M702.218 196.059C736.194 269.704 656.873 283.483 623.251 307.238C622.747 307.594 622.039 307.358 621.794 306.792C589.838 233.164 667.2 219.395 700.768 195.635C701.265 195.283 701.963 195.507 702.218 196.059Z" fill="#080808"/>
<path d="M586.356 315.592C612.283 371.963 551.499 382.627 525.709 400.871C525.322 401.145 524.781 400.965 524.593 400.532C500.214 344.171 559.498 333.517 585.246 315.269C585.627 314.999 586.161 315.169 586.356 315.592Z" fill="#080808"/>
<path d="M362.625 547.09C371.66 566.75 350.452 570.482 341.452 576.852C341.317 576.947 341.128 576.885 341.063 576.733C332.568 557.076 353.252 553.348 362.238 546.977C362.371 546.883 362.557 546.942 362.625 547.09Z" fill="#080808"/>
<path d="M314.787 594.927C323.822 614.587 302.614 618.319 293.614 624.689C293.479 624.784 293.29 624.722 293.225 624.57C284.73 604.913 305.414 601.185 314.4 594.814C314.533 594.72 314.72 594.779 314.787 594.927Z" fill="#080808"/>
<path d="M266.949 642.763C275.984 662.424 254.777 666.156 245.776 672.525C245.641 672.621 245.452 672.558 245.387 672.407C236.892 652.749 257.576 649.022 266.562 642.651C266.695 642.556 266.882 642.616 266.949 642.763Z" fill="#080808"/>
<path d="M220.012 691.526C226.023 704.742 211.714 707.342 205.622 711.672C205.53 711.736 205.403 711.695 205.36 711.593C199.712 698.377 213.669 695.782 219.752 691.452C219.842 691.388 219.967 691.427 220.012 691.526Z" fill="#080808"/>
<path d="M509.769 578.968C522.436 606.395 492.906 611.507 480.393 620.344C480.206 620.476 479.942 620.388 479.851 620.177C467.936 592.757 496.736 587.648 509.229 578.809C509.414 578.678 509.674 578.762 509.769 578.968Z" fill="#080808"/>
<path d="M582.929 503.056C601.586 543.484 558.046 551.041 539.592 564.078C539.315 564.273 538.927 564.144 538.792 563.833C521.243 523.413 563.709 515.862 582.133 502.823C582.406 502.63 582.789 502.753 582.929 503.056Z" fill="#080808"/>
<path d="M792.56 286.393C826.535 360.037 747.215 373.816 713.592 397.571C713.088 397.927 712.381 397.692 712.135 397.125C680.179 323.498 757.542 309.729 791.11 285.968C791.606 285.617 792.305 285.84 792.56 286.393Z" fill="#080808"/>
<path d="M676.696 405.926C702.623 462.296 641.839 472.96 616.049 491.205C615.662 491.478 615.121 491.299 614.933 490.865C590.553 434.504 649.838 423.85 675.586 405.602C675.967 405.332 676.501 405.503 676.696 405.926Z" fill="#080808"/>
<path d="M452.965 637.423C461.999 657.084 440.792 660.816 431.792 667.185C431.657 667.281 431.468 667.218 431.402 667.067C422.908 647.409 443.592 643.682 452.578 637.311C452.711 637.217 452.897 637.276 452.965 637.423Z" fill="#080808"/>
<path d="M405.127 685.26C414.162 704.921 392.954 708.653 383.954 715.022C383.819 715.118 383.63 715.055 383.565 714.904C375.07 695.246 395.754 691.518 404.74 685.148C404.873 685.053 405.059 685.113 405.127 685.26Z" fill="#080808"/>
<path d="M357.291 733.097C366.326 752.758 345.118 756.489 336.118 762.859C335.983 762.954 335.794 762.892 335.729 762.741C327.234 743.083 347.918 739.355 356.904 732.984C357.037 732.89 357.223 732.949 357.291 733.097Z" fill="#080808"/>
<path d="M310.381 781.886C316.392 795.103 302.083 797.703 295.991 802.032C295.899 802.097 295.772 802.055 295.729 801.954C290.081 788.737 304.038 786.142 310.121 781.812C310.211 781.748 310.336 781.787 310.381 781.886Z" fill="#080808"/>
<path d="M600.105 669.301C612.771 696.728 583.242 701.84 570.729 710.677C570.541 710.81 570.278 710.722 570.186 710.511C558.272 683.09 587.072 677.981 599.565 669.143C599.75 669.012 600.01 669.095 600.105 669.301Z" fill="#080808"/>
<path d="M673.265 593.389C691.922 633.818 648.382 641.374 629.927 654.411C629.651 654.606 629.263 654.477 629.128 654.166C611.579 613.747 654.045 606.196 672.469 593.156C672.741 592.963 673.125 593.086 673.265 593.389Z" fill="#080808"/>
<path d="M882.893 376.726C916.869 450.37 837.549 464.149 803.926 487.905C803.422 488.261 802.715 488.025 802.469 487.459C770.513 413.831 847.876 400.062 881.444 376.301C881.94 375.95 882.639 376.174 882.893 376.726Z" fill="#080808"/>
<path d="M767.031 496.259C792.959 552.629 732.174 563.294 706.385 581.538C705.998 581.811 705.456 581.632 705.269 581.198C680.889 524.838 740.174 514.184 765.921 495.936C766.302 495.666 766.837 495.836 767.031 496.259Z" fill="#080808"/>
<path d="M543.299 727.756C552.333 747.417 531.126 751.149 522.125 757.518C521.991 757.614 521.802 757.551 521.736 757.4C513.242 737.743 533.926 734.015 542.912 727.644C543.045 727.55 543.231 727.609 543.299 727.756Z" fill="#080808"/>
<path d="M495.461 775.593C504.495 795.254 483.288 798.986 474.288 805.355C474.153 805.451 473.964 805.388 473.898 805.237C465.404 785.579 486.088 781.852 495.074 775.481C495.207 775.387 495.393 775.446 495.461 775.593Z" fill="#080808"/>
<path d="M447.627 823.43C456.661 843.09 435.454 846.822 426.454 853.192C426.319 853.287 426.13 853.224 426.064 853.073C417.57 833.416 438.254 829.688 447.24 823.317C447.373 823.223 447.559 823.282 447.627 823.43Z" fill="#080808"/>
<path d="M400.742 872.247C406.754 885.463 392.444 888.063 386.352 892.392C386.261 892.457 386.133 892.416 386.09 892.314C380.443 879.098 394.4 876.503 400.482 872.173C400.572 872.109 400.697 872.148 400.742 872.247Z" fill="#080808"/>
<path d="M507.314 672.193C519.981 699.62 490.451 704.733 477.938 713.569C477.751 713.702 477.487 713.614 477.396 713.403C465.481 685.983 494.282 680.874 506.774 672.035C506.959 671.904 507.219 671.988 507.314 672.193Z" fill="#080808"/>
<path d="M580.472 596.281C599.129 636.71 555.589 644.267 537.135 657.303C536.858 657.499 536.47 657.369 536.335 657.058C518.787 616.639 561.252 609.088 579.676 596.048C579.949 595.855 580.332 595.978 580.472 596.281Z" fill="#080808"/>
<path d="M790.105 379.619C824.08 453.263 744.76 467.042 711.137 490.797C710.633 491.153 709.926 490.918 709.68 490.351C677.724 416.724 755.087 402.954 788.655 379.194C789.151 378.843 789.85 379.066 790.105 379.619Z" fill="#080808"/>
<path d="M674.241 499.151C700.168 555.522 639.384 566.186 613.594 584.43C613.207 584.704 612.666 584.524 612.478 584.091C588.098 527.73 647.383 517.076 673.131 498.828C673.511 498.558 674.046 498.728 674.241 499.151Z" fill="#080808"/>
<path d="M450.51 730.649C459.544 750.31 438.337 754.041 429.337 760.411C429.202 760.506 429.013 760.444 428.948 760.293C420.453 740.635 441.137 736.907 450.123 730.536C450.256 730.442 450.442 730.501 450.51 730.649Z" fill="#080808"/>
<path d="M402.672 778.486C411.707 798.146 390.499 801.878 381.499 808.248C381.364 808.343 381.175 808.281 381.11 808.129C372.615 788.472 393.299 784.744 402.285 778.373C402.418 778.279 402.604 778.338 402.672 778.486Z" fill="#080808"/>
<path d="M355.551 827.067C361.562 840.283 347.253 842.883 341.161 847.212C341.069 847.277 340.942 847.236 340.899 847.134C335.251 833.918 349.208 831.323 355.291 826.992C355.381 826.928 355.506 826.968 355.551 827.067Z" fill="#080808"/>
<path d="M597.644 762.526C610.311 789.953 580.781 795.066 568.268 803.902C568.081 804.035 567.817 803.947 567.726 803.736C555.811 776.316 584.612 771.207 597.104 762.368C597.289 762.237 597.549 762.321 597.644 762.526Z" fill="#080808"/>
<path d="M670.804 686.614C689.461 727.043 645.921 734.6 627.467 747.636C627.19 747.832 626.802 747.702 626.667 747.391C609.119 706.972 651.584 699.421 670.008 686.381C670.281 686.188 670.664 686.311 670.804 686.614Z" fill="#080808"/>
<path d="M880.435 469.952C914.41 543.596 835.09 557.375 801.467 581.13C800.963 581.486 800.256 581.251 800.01 580.684C768.054 507.056 845.417 493.287 878.985 469.527C879.481 469.176 880.18 469.399 880.435 469.952Z" fill="#080808"/>
<path d="M764.571 589.484C790.498 645.855 729.714 656.519 703.924 674.764C703.537 675.037 702.996 674.857 702.808 674.424C678.428 618.063 737.713 607.409 763.461 589.161C763.842 588.891 764.376 589.062 764.571 589.484Z" fill="#080808"/>
<path d="M540.84 820.982C549.875 840.643 528.667 844.374 519.667 850.744C519.532 850.839 519.343 850.777 519.278 850.626C510.783 830.968 531.467 827.24 540.453 820.869C540.586 820.775 540.772 820.835 540.84 820.982Z" fill="#080808"/>
<path d="M493.002 868.819C502.037 888.48 480.829 892.212 471.829 898.581C471.694 898.677 471.505 898.614 471.44 898.463C462.945 878.805 483.629 875.077 492.615 868.707C492.748 868.612 492.934 868.672 493.002 868.819Z" fill="#080808"/>
<path d="M445.909 917.427C451.92 930.643 437.61 933.243 431.518 937.572C431.427 937.637 431.3 937.596 431.256 937.494C425.609 924.278 439.566 921.683 445.648 917.353C445.738 917.289 445.864 917.328 445.909 917.427Z" fill="#080808"/>
<path d="M235.876 400.748C248.543 428.175 219.014 433.287 206.501 442.124C206.313 442.257 206.05 442.169 205.958 441.958C194.043 414.537 222.844 409.428 235.337 400.59C235.521 400.459 235.781 400.542 235.876 400.748Z" fill="#080808"/>
<path d="M309.036 324.836C327.693 365.265 284.153 372.821 265.699 385.858C265.423 386.054 265.034 385.924 264.899 385.613C247.351 345.194 289.816 337.643 308.241 324.603C308.513 324.41 308.896 324.533 309.036 324.836Z" fill="#080808"/>
<path d="M518.669 108.173C552.645 181.818 473.324 195.597 439.702 219.352C439.198 219.708 438.49 219.472 438.245 218.906C406.289 145.278 483.651 131.509 517.219 107.749C517.716 107.397 518.414 107.621 518.669 108.173Z" fill="#080808"/>
<path d="M402.805 227.706C428.732 284.077 367.948 294.741 342.158 312.985C341.772 313.259 341.23 313.079 341.043 312.646C316.663 256.285 375.947 245.631 401.695 227.383C402.076 227.113 402.611 227.283 402.805 227.706Z" fill="#080808"/>
<path d="M179.074 459.204C188.109 478.865 166.901 482.596 157.901 488.966C157.766 489.061 157.577 488.999 157.512 488.848C149.017 469.19 169.701 465.462 178.687 459.091C178.82 458.997 179.007 459.056 179.074 459.204Z" fill="#080808"/>
<path d="M131.236 507.041C140.271 526.701 119.064 530.433 110.063 536.803C109.928 536.898 109.739 536.836 109.674 536.684C101.179 517.027 121.863 513.299 130.849 506.928C130.982 506.834 131.169 506.893 131.236 507.041Z" fill="#080808"/>
<path d="M84.4807 555.986C90.492 569.202 76.1824 571.802 70.0903 576.131C69.999 576.196 69.8719 576.154 69.8285 576.053C64.181 562.837 78.1379 560.241 84.2202 555.911C84.3102 555.847 84.4357 555.886 84.4807 555.986Z" fill="#080808"/>
<path d="M326.21 491.082C338.877 518.509 309.348 523.621 296.835 532.458C296.647 532.591 296.384 532.503 296.292 532.292C284.377 504.871 313.178 499.762 325.671 490.924C325.855 490.793 326.115 490.876 326.21 491.082Z" fill="#080808"/>
<path d="M399.37 415.17C418.027 455.598 374.487 463.155 356.033 476.192C355.756 476.387 355.368 476.258 355.233 475.947C337.685 435.528 380.15 427.976 398.575 414.937C398.847 414.744 399.23 414.867 399.37 415.17Z" fill="#080808"/>
<path d="M609.001 198.507C642.977 272.152 563.656 285.931 530.034 309.686C529.53 310.042 528.823 309.806 528.577 309.24C496.621 235.612 573.984 221.843 607.551 198.083C608.048 197.731 608.746 197.955 609.001 198.507Z" fill="#080808"/>
<path d="M493.137 318.04C519.064 374.41 458.28 385.075 432.49 403.319C432.104 403.592 431.562 403.413 431.375 402.979C406.995 346.619 466.279 335.965 492.027 317.717C492.408 317.447 492.943 317.617 493.137 318.04Z" fill="#080808"/>
<path d="M269.406 549.537C278.441 569.198 257.234 572.93 248.233 579.299C248.098 579.395 247.909 579.332 247.844 579.181C239.349 559.524 260.033 555.796 269.019 549.425C269.152 549.331 269.339 549.39 269.406 549.537Z" fill="#080808"/>
<path d="M221.569 597.374C230.603 617.035 209.396 620.766 200.395 627.136C200.26 627.231 200.071 627.169 200.006 627.018C191.511 607.36 212.195 603.632 221.181 597.261C221.314 597.167 221.501 597.226 221.569 597.374Z" fill="#080808"/>
<path d="M174.84 646.346C180.851 659.562 166.542 662.162 160.45 666.491C160.358 666.556 160.231 666.515 160.188 666.413C154.541 653.197 168.497 650.602 174.58 646.272C174.67 646.208 174.795 646.247 174.84 646.346Z" fill="#080808"/>
<path d="M416.542 581.415C429.209 608.842 399.68 613.954 387.167 622.791C386.979 622.924 386.716 622.836 386.624 622.625C374.709 595.204 403.51 590.095 416.003 581.257C416.187 581.126 416.447 581.209 416.542 581.415Z" fill="#080808"/>
<path d="M489.702 505.503C508.359 545.932 464.819 553.488 446.365 566.525C446.089 566.72 445.7 566.591 445.565 566.28C428.017 525.861 470.482 518.31 488.907 505.27C489.179 505.077 489.562 505.2 489.702 505.503Z" fill="#080808"/>
<path d="M699.335 288.84C733.311 362.485 653.99 376.264 620.368 400.019C619.864 400.375 619.157 400.139 618.911 399.573C586.955 325.945 664.318 312.176 697.885 288.416C698.382 288.064 699.08 288.288 699.335 288.84Z" fill="#080808"/>
<path d="M583.473 408.373C609.4 464.743 548.616 475.408 522.826 493.652C522.44 493.925 521.898 493.746 521.711 493.312C497.331 436.952 556.615 426.298 582.363 408.05C582.744 407.78 583.279 407.95 583.473 408.373Z" fill="#080808"/>
<path d="M359.739 639.871C368.773 659.531 347.566 663.263 338.565 669.633C338.43 669.728 338.241 669.666 338.176 669.514C329.681 649.857 350.365 646.129 359.351 639.758C359.484 639.664 359.671 639.723 359.739 639.871Z" fill="#080808"/>
<path d="M311.903 687.707C320.937 707.368 299.73 711.099 290.729 717.469C290.594 717.564 290.405 717.502 290.34 717.351C281.845 697.693 302.529 693.965 311.515 687.594C311.648 687.5 311.835 687.559 311.903 687.707Z" fill="#080808"/>
<path d="M265.202 736.706C271.213 749.923 256.903 752.522 250.811 756.852C250.72 756.917 250.593 756.875 250.549 756.774C244.902 743.557 258.859 740.962 264.941 736.632C265.031 736.568 265.156 736.607 265.202 736.706Z" fill="#080808"/>
</svg>
