<svg width="836" height="359" viewBox="0 0 836 359" fill="none" xmlns="http://www.w3.org/2000/svg">
<mask id="mask0_778_13823" style="mask-type:alpha" maskUnits="userSpaceOnUse" x="0" y="0" width="836" height="359">
<path d="M155.556 351.82V291.747H0V244.359L112 7.17999H169.197L57.1967 244.359H155.556V151.019H206.291V244.359H240.513V291.747H206.291V351.82H155.556Z" fill="#0C0C0C"/>
<path d="M418.105 359C394.652 359 373.911 353.894 355.882 343.683C337.854 333.312 323.654 319.111 313.284 301.081C303.073 283.052 297.968 262.309 297.968 238.855V120.145C297.968 96.6907 303.073 75.9484 313.284 57.9187C323.654 39.8889 337.854 25.7682 355.882 15.5566C373.911 5.18555 394.652 0 418.105 0C441.558 0 462.298 5.18555 480.327 15.5566C498.356 25.7682 512.475 39.8889 522.686 57.9187C533.056 75.9484 538.242 96.6907 538.242 120.145V238.855C538.242 262.309 533.056 283.052 522.686 301.081C512.475 319.111 498.356 333.312 480.327 343.683C462.298 353.894 441.558 359 418.105 359ZM418.105 311.133C430.868 311.133 442.435 308.102 452.806 302.039C463.336 295.816 471.712 287.519 477.934 277.148C484.156 266.617 487.267 254.89 487.267 241.966V116.555C487.267 103.791 484.156 92.2231 477.934 81.852C471.712 71.3213 463.336 63.0244 452.806 56.9613C442.435 50.7387 430.868 47.6273 418.105 47.6273C405.341 47.6273 393.694 50.7387 383.164 56.9613C372.794 63.0244 364.498 71.3213 358.276 81.852C352.053 92.2231 348.942 103.791 348.942 116.555V241.966C348.942 254.89 352.053 266.617 358.276 277.148C364.498 287.519 372.794 295.816 383.164 302.039C393.694 308.102 405.341 311.133 418.105 311.133Z" fill="#0C0C0C"/>
<path d="M751.043 351.82V291.747H595.487V244.359L707.487 7.17999H764.684L652.684 244.359H751.043V151.019H801.778V244.359H836V291.747H801.778V351.82H751.043Z" fill="#0C0C0C"/>
</mask>
<g mask="url(#mask0_778_13823)">
<line x1="3.25" y1="-205" x2="3.24997" y2="564" stroke="#4F4F4F" stroke-width="0.5"/>
<line x1="13.25" y1="-205" x2="13.25" y2="564" stroke="#4F4F4F" stroke-width="0.5"/>
<line x1="23.25" y1="-205" x2="23.25" y2="564" stroke="#4F4F4F" stroke-width="0.5"/>
<line x1="33.25" y1="-205" x2="33.25" y2="564" stroke="#4F4F4F" stroke-width="0.5"/>
<line x1="43.25" y1="-205" x2="43.25" y2="564" stroke="#4F4F4F" stroke-width="0.5"/>
<line x1="53.25" y1="-205" x2="53.25" y2="564" stroke="#4F4F4F" stroke-width="0.5"/>
<line x1="63.25" y1="-205" x2="63.25" y2="564" stroke="#4F4F4F" stroke-width="0.5"/>
<line x1="73.25" y1="-205" x2="73.25" y2="564" stroke="#4F4F4F" stroke-width="0.5"/>
<line x1="83.25" y1="-205" x2="83.25" y2="564" stroke="#4F4F4F" stroke-width="0.5"/>
<line x1="93.25" y1="-205" x2="93.25" y2="564" stroke="#4F4F4F" stroke-width="0.5"/>
<line x1="103.25" y1="-205" x2="103.25" y2="564" stroke="#4F4F4F" stroke-width="0.5"/>
<line x1="113.25" y1="-205" x2="113.25" y2="564" stroke="#4F4F4F" stroke-width="0.5"/>
<line x1="123.25" y1="-205" x2="123.25" y2="564" stroke="#4F4F4F" stroke-width="0.5"/>
<line x1="133.25" y1="-205" x2="133.25" y2="564" stroke="#4F4F4F" stroke-width="0.5"/>
<line x1="143.25" y1="-205" x2="143.25" y2="564" stroke="#4F4F4F" stroke-width="0.5"/>
<line x1="153.25" y1="-205" x2="153.25" y2="564" stroke="#4F4F4F" stroke-width="0.5"/>
<line x1="163.25" y1="-205" x2="163.25" y2="564" stroke="#4F4F4F" stroke-width="0.5"/>
<line x1="173.25" y1="-205" x2="173.25" y2="564" stroke="#4F4F4F" stroke-width="0.5"/>
<line x1="183.25" y1="-205" x2="183.25" y2="564" stroke="#4F4F4F" stroke-width="0.5"/>
<line x1="193.25" y1="-205" x2="193.25" y2="564" stroke="#4F4F4F" stroke-width="0.5"/>
<line x1="203.25" y1="-205" x2="203.25" y2="564" stroke="#4F4F4F" stroke-width="0.5"/>
<line x1="213.25" y1="-205" x2="213.25" y2="564" stroke="#4F4F4F" stroke-width="0.5"/>
<line x1="223.25" y1="-205" x2="223.25" y2="564" stroke="#4F4F4F" stroke-width="0.5"/>
<line x1="233.25" y1="-205" x2="233.25" y2="564" stroke="#4F4F4F" stroke-width="0.5"/>
<line x1="243.25" y1="-205" x2="243.25" y2="564" stroke="#4F4F4F" stroke-width="0.5"/>
<line x1="253.25" y1="-205" x2="253.25" y2="564" stroke="#4F4F4F" stroke-width="0.5"/>
<line x1="263.25" y1="-205" x2="263.25" y2="564" stroke="#4F4F4F" stroke-width="0.5"/>
<line x1="273.25" y1="-205" x2="273.25" y2="564" stroke="#4F4F4F" stroke-width="0.5"/>
<line x1="283.25" y1="-205" x2="283.25" y2="564" stroke="#4F4F4F" stroke-width="0.5"/>
<line x1="293.25" y1="-205" x2="293.25" y2="564" stroke="#4F4F4F" stroke-width="0.5"/>
<line x1="303.25" y1="-205" x2="303.25" y2="564" stroke="#4F4F4F" stroke-width="0.5"/>
<line x1="313.25" y1="-205" x2="313.25" y2="564" stroke="#4F4F4F" stroke-width="0.5"/>
<line x1="323.25" y1="-205" x2="323.25" y2="564" stroke="#4F4F4F" stroke-width="0.5"/>
<line x1="333.25" y1="-205" x2="333.25" y2="564" stroke="#4F4F4F" stroke-width="0.5"/>
<line x1="343.25" y1="-205" x2="343.25" y2="564" stroke="#4F4F4F" stroke-width="0.5"/>
<line x1="353.25" y1="-205" x2="353.25" y2="564" stroke="#4F4F4F" stroke-width="0.5"/>
<line x1="363.25" y1="-205" x2="363.25" y2="564" stroke="#4F4F4F" stroke-width="0.5"/>
<line x1="373.25" y1="-205" x2="373.25" y2="564" stroke="#4F4F4F" stroke-width="0.5"/>
<line x1="383.25" y1="-205" x2="383.25" y2="564" stroke="#4F4F4F" stroke-width="0.5"/>
<line x1="393.25" y1="-205" x2="393.25" y2="564" stroke="#4F4F4F" stroke-width="0.5"/>
<line x1="403.25" y1="-205" x2="403.25" y2="564" stroke="#4F4F4F" stroke-width="0.5"/>
<line x1="413.25" y1="-205" x2="413.25" y2="564" stroke="#4F4F4F" stroke-width="0.5"/>
<line x1="423.25" y1="-205" x2="423.25" y2="564" stroke="#4F4F4F" stroke-width="0.5"/>
<line x1="433.25" y1="-205" x2="433.25" y2="564" stroke="#4F4F4F" stroke-width="0.5"/>
<line x1="443.25" y1="-205" x2="443.25" y2="564" stroke="#4F4F4F" stroke-width="0.5"/>
<line x1="453.25" y1="-205" x2="453.25" y2="564" stroke="#4F4F4F" stroke-width="0.5"/>
<line x1="463.25" y1="-205" x2="463.25" y2="564" stroke="#4F4F4F" stroke-width="0.5"/>
<line x1="473.25" y1="-205" x2="473.25" y2="564" stroke="#4F4F4F" stroke-width="0.5"/>
<line x1="483.25" y1="-205" x2="483.25" y2="564" stroke="#4F4F4F" stroke-width="0.5"/>
<line x1="493.25" y1="-205" x2="493.25" y2="564" stroke="#4F4F4F" stroke-width="0.5"/>
<line x1="503.25" y1="-205" x2="503.25" y2="564" stroke="#4F4F4F" stroke-width="0.5"/>
<line x1="513.25" y1="-205" x2="513.25" y2="564" stroke="#4F4F4F" stroke-width="0.5"/>
<line x1="523.25" y1="-205" x2="523.25" y2="564" stroke="#4F4F4F" stroke-width="0.5"/>
<line x1="533.25" y1="-205" x2="533.25" y2="564" stroke="#4F4F4F" stroke-width="0.5"/>
<line x1="543.25" y1="-205" x2="543.25" y2="564" stroke="#4F4F4F" stroke-width="0.5"/>
<line x1="553.25" y1="-205" x2="553.25" y2="564" stroke="#4F4F4F" stroke-width="0.5"/>
<line x1="563.25" y1="-205" x2="563.25" y2="564" stroke="#4F4F4F" stroke-width="0.5"/>
<line x1="573.25" y1="-205" x2="573.25" y2="564" stroke="#4F4F4F" stroke-width="0.5"/>
<line x1="583.25" y1="-205" x2="583.25" y2="564" stroke="#4F4F4F" stroke-width="0.5"/>
<line x1="593.25" y1="-205" x2="593.25" y2="564" stroke="#4F4F4F" stroke-width="0.5"/>
<line x1="603.25" y1="-205" x2="603.25" y2="564" stroke="#4F4F4F" stroke-width="0.5"/>
<line x1="613.25" y1="-205" x2="613.25" y2="564" stroke="#4F4F4F" stroke-width="0.5"/>
<line x1="623.25" y1="-205" x2="623.25" y2="564" stroke="#4F4F4F" stroke-width="0.5"/>
<line x1="633.25" y1="-205" x2="633.25" y2="564" stroke="#4F4F4F" stroke-width="0.5"/>
<line x1="643.25" y1="-205" x2="643.25" y2="564" stroke="#4F4F4F" stroke-width="0.5"/>
<line x1="653.25" y1="-205" x2="653.25" y2="564" stroke="#4F4F4F" stroke-width="0.5"/>
<line x1="663.25" y1="-205" x2="663.25" y2="564" stroke="#4F4F4F" stroke-width="0.5"/>
<line x1="673.25" y1="-205" x2="673.25" y2="564" stroke="#4F4F4F" stroke-width="0.5"/>
<line x1="683.25" y1="-205" x2="683.25" y2="564" stroke="#4F4F4F" stroke-width="0.5"/>
<line x1="693.25" y1="-205" x2="693.25" y2="564" stroke="#4F4F4F" stroke-width="0.5"/>
<line x1="703.25" y1="-205" x2="703.25" y2="564" stroke="#4F4F4F" stroke-width="0.5"/>
<line x1="713.25" y1="-205" x2="713.25" y2="564" stroke="#4F4F4F" stroke-width="0.5"/>
<line x1="723.25" y1="-205" x2="723.25" y2="564" stroke="#4F4F4F" stroke-width="0.5"/>
<line x1="733.25" y1="-205" x2="733.25" y2="564" stroke="#4F4F4F" stroke-width="0.5"/>
<line x1="743.25" y1="-205" x2="743.25" y2="564" stroke="#4F4F4F" stroke-width="0.5"/>
<line x1="753.25" y1="-205" x2="753.25" y2="564" stroke="#4F4F4F" stroke-width="0.5"/>
<line x1="763.25" y1="-205" x2="763.25" y2="564" stroke="#4F4F4F" stroke-width="0.5"/>
<line x1="773.25" y1="-205" x2="773.25" y2="564" stroke="#4F4F4F" stroke-width="0.5"/>
<line x1="783.25" y1="-205" x2="783.25" y2="564" stroke="#4F4F4F" stroke-width="0.5"/>
<line x1="793.25" y1="-205" x2="793.25" y2="564" stroke="#4F4F4F" stroke-width="0.5"/>
<line x1="803.254" y1="-205" x2="803.254" y2="564" stroke="#4F4F4F" stroke-width="0.5"/>
<line x1="813.254" y1="-205" x2="813.254" y2="564" stroke="#4F4F4F" stroke-width="0.5"/>
<line x1="823.254" y1="-205" x2="823.254" y2="564" stroke="#4F4F4F" stroke-width="0.5"/>
<line x1="833.254" y1="-205" x2="833.254" y2="564" stroke="#4F4F4F" stroke-width="0.5"/>
</g>
</svg>
