<svg width="80" height="80" viewBox="0 0 80 80" fill="none" xmlns="http://www.w3.org/2000/svg">
<path d="M48.1043 23.9648C47.8489 23.5249 47.3806 23.2552 46.8698 23.2552H43.1092L41.2361 20.0056C40.7252 19.1257 39.2777 19.1257 38.7669 20.0056L36.8937 23.2552H33.1332C32.6223 23.2552 32.154 23.5249 31.8986 23.9648C31.6432 24.4047 31.6432 24.9439 31.8986 25.3838L33.786 28.6477L31.8986 31.9115C31.6432 32.3514 31.6432 32.8907 31.8986 33.3306C32.154 33.7705 32.6223 34.0401 33.1332 34.0401H36.8937L38.7669 37.2898C39.0223 37.7297 39.4906 37.9993 40.0015 37.9993C40.5123 37.9993 40.9806 37.7297 41.2361 37.2898L43.1092 34.0401H46.8698C47.3806 34.0401 47.8489 33.7705 48.1043 33.3306C48.3598 32.8907 48.3598 32.3514 48.1043 31.9115L46.217 28.6477L48.1043 25.3838C48.3598 24.9439 48.3598 24.4047 48.1043 23.9648Z" fill="#1B1B1B"/>
<path d="M65.3003 68.2686C64.8604 68.6659 64.2218 68.7511 63.6825 68.4672L55.3952 64.0965L52.5854 73.065C52.4152 73.6326 51.9043 74.03 51.2941 74.0584H51.2373C50.6697 74.0584 50.1446 73.7178 49.9318 73.1785L41.9141 53.8225L42.2546 53.9502C42.7229 54.1063 43.2054 54.1914 43.7021 54.1914C44.6812 54.1914 45.6462 53.8509 46.4409 53.1981L48.2857 51.6371L50.6555 51.6229C52.1597 51.6229 53.5646 50.8141 54.3309 49.4943L55.5513 47.3799L57.3819 46.6846L65.655 66.6792C65.8963 67.2326 65.7544 67.8712 65.3003 68.2686Z" fill="#1B1B1B"/>
<path d="M38.0838 53.8078L30.0661 73.1781C29.8532 73.7173 29.3281 74.0579 28.7605 74.0579H28.7037C28.0935 74.0295 27.5827 73.6322 27.4124 73.0646L24.6026 64.0961L16.3153 68.4668C15.7761 68.7506 15.1375 68.6654 14.6976 68.2681C14.2435 67.8708 14.1016 67.2322 14.3428 66.6788L22.616 46.6699L24.4324 47.3653L25.6669 49.4939C26.4332 50.8136 27.8381 51.6225 29.3139 51.6225L31.7122 51.6367L33.6279 53.2544C34.4084 53.8646 35.3308 54.191 36.2957 54.191C36.7924 54.191 37.2891 54.1058 37.7432 53.9355L38.0838 53.8078Z" fill="#1B1B1B"/>
<path d="M62.519 27.9517L60.8303 24.929L61.4121 21.4807C61.483 20.9982 61.3128 20.5016 60.9296 20.1752L58.3185 17.9189L57.7083 14.4989C57.609 14.0164 57.2684 13.6049 56.8001 13.4346L53.6072 12.2142L51.876 9.21998C51.6205 8.78007 51.1522 8.51045 50.6556 8.51045L47.2356 8.48207L44.6104 6.26832C44.213 5.94194 43.688 5.8568 43.2197 6.02708L39.9984 7.19072L36.7913 6.02708C36.3088 5.8568 35.7838 5.94194 35.3864 6.26832L32.7611 8.48207L29.3412 8.51045C28.8445 8.51045 28.3762 8.78007 28.1208 9.21998L26.3895 12.2142L23.1966 13.4204C22.7284 13.6049 22.3878 14.0164 22.3026 14.4989L21.6782 17.9189L19.0672 20.1752C18.684 20.5016 18.5137 20.9982 18.5989 21.4807L19.1665 24.929L17.4778 27.9517C17.2366 28.3916 17.2366 28.9024 17.4778 29.3423L19.1665 32.365L18.5847 35.8133C18.5137 36.2958 18.684 36.7924 19.0672 37.1188L21.6782 39.3751L22.2884 42.7951C22.3878 43.2776 22.7284 43.6891 23.1966 43.8594L26.3895 45.0798L28.1208 48.074C28.3762 48.5139 28.8445 48.7835 29.3412 48.7835L32.7611 48.8119L35.3864 51.0257C35.656 51.2385 35.9682 51.3521 36.2946 51.3521C36.4649 51.3521 36.621 51.3237 36.7771 51.2669L39.9984 50.1033L43.2055 51.2669C43.688 51.4372 44.213 51.3521 44.6104 51.0257L47.2356 48.8119L50.6556 48.7835C51.1522 48.7835 51.6205 48.5139 51.876 48.074L53.6072 45.0798L56.8001 43.8736C57.2684 43.6891 57.609 43.2776 57.6941 42.7951L58.3185 39.3751L60.9296 37.1188C61.3128 36.7924 61.4831 36.2958 61.3979 35.8133L60.8303 32.365L62.519 29.3423C62.7602 28.9024 62.7602 28.3916 62.519 27.9517ZM39.9984 44.2567C31.3847 44.2567 24.3887 37.2607 24.3887 28.647C24.3887 20.0333 31.3847 13.0373 39.9984 13.0373C48.6121 13.0373 55.6081 20.0333 55.6081 28.647C55.6081 37.2607 48.6121 44.2567 39.9984 44.2567Z" fill="#1B1B1B"/>
</svg>
