<svg width="80" height="80" viewBox="0 0 80 80" fill="none" xmlns="http://www.w3.org/2000/svg">
<g clip-path="url(#clip0_941_21463)">
<path d="M64.1382 55.1143C57.2726 55.1143 51.6953 60.6916 51.6953 67.5572C51.6953 74.4228 57.2726 80.0001 64.1382 80.0001C71.0039 80.0001 76.5812 74.4228 76.5812 67.5572C76.5812 60.6916 71.0202 55.1143 64.1382 55.1143ZM69.21 66.0242L63.7305 71.4711C63.4207 71.7809 62.9967 71.9603 62.5401 71.9603C62.0997 71.9603 61.6757 71.7809 61.3496 71.4711L59.0665 69.1717C58.4142 68.5193 58.4142 67.443 59.0665 66.7907C59.7188 66.1384 60.7951 66.1384 61.4474 66.7907L62.5564 67.8996L66.8453 63.6433C67.4977 62.991 68.574 62.991 69.2263 63.6433C69.8623 64.3119 69.8623 65.3719 69.21 66.0242Z" fill="#1B1B1B"/>
<path d="M61.3838 48.9168C60.813 48.5743 60.177 48.3134 59.4431 48.1177C51.6806 46.1444 45.3694 41.6924 45.3694 41.6924L40.4444 57.2827L39.5149 60.2182L39.4986 60.1855L38.6832 62.6643L36.0902 55.2932C42.4666 46.3891 34.8019 46.4706 34.3779 46.4869C33.9539 46.4706 26.2729 46.3891 32.6656 55.2932L30.0563 62.648L29.2409 60.1692L29.2246 60.2018L28.295 57.2664L23.3701 41.6924C23.3701 41.6924 17.0589 46.1281 9.29634 48.1177C3.52335 49.6017 3.24611 56.2716 3.47442 59.5821C3.47442 59.5821 3.81689 64.0668 4.14305 66.0401C4.14305 66.0401 15.4444 73.3786 34.3779 73.3949C39.4333 73.3949 43.9343 72.8731 47.8319 72.0903C47.4242 70.6389 47.2122 69.1223 47.2122 67.5567C47.2122 59.2886 53.1646 52.3904 61.0087 50.9227C61.9871 50.7433 62.2481 49.4223 61.3838 48.9168Z" fill="#1B1B1B"/>
<path d="M48.8077 20.7534C49.0523 20.0684 49.2317 19.3835 49.3622 18.6986C51.5148 5.75009 45.1384 5.29347 45.1384 5.29347C45.1384 5.29347 44.0784 3.25499 41.2898 1.72204C39.4307 0.613107 36.8214 -0.234904 33.3968 0.0586382C32.2878 0.107562 31.2441 0.319564 30.2493 0.66203C28.9936 1.08604 27.8358 1.70574 26.7921 2.43959C25.5037 3.25499 24.297 4.24977 23.237 5.37501C21.5409 7.10365 20.0406 9.33783 19.3883 12.1265C18.8501 14.2139 18.9643 16.3828 19.4209 18.7149C19.5514 19.3998 19.7308 20.0847 19.9754 20.7697C18.6871 20.6392 17.1867 21.3731 18.6055 26.3796C19.6329 30.0325 20.5951 31.0599 21.3289 31.1252C21.9976 35.4794 25.357 41.0078 30.869 42.9484C33.1358 43.7475 35.6146 43.7475 37.8651 42.9321C43.2957 40.9751 46.7529 35.4631 47.4379 31.1252C48.1717 31.0599 49.1339 30.0489 50.1613 26.3796C51.5801 21.3731 50.0797 20.6392 48.8077 20.7534Z" fill="#1B1B1B"/>
</g>
<defs>
<clipPath id="clip0_941_21463">
<rect width="80" height="80" fill="white"/>
</clipPath>
</defs>
</svg>
