<svg width="80" height="80" viewBox="0 0 80 80" fill="none" xmlns="http://www.w3.org/2000/svg">
<g clip-path="url(#clip0_941_21458)">
<path d="M19.3333 20.3337C16.6666 17.667 5.33328 17.0004 1.66656 16.667C1.33328 16.667 0.999844 16.667 0.666563 17.0003C0.333281 17.3337 0 18.0004 0 18.3337V48.3337C0 49.3337 0.666719 50.0004 1.66672 50.0004H11.6667C12.3334 50.0004 13 49.6671 13.3334 49.0004C13.3334 48.0004 19.3334 30.3337 20.0002 21.6671C20 21.3337 20 20.6671 19.3333 20.3337Z" fill="#1B1B1B"/>
<path d="M54.9982 28.3336C51.665 27.3336 48.665 26.0003 45.9982 25.0003C39.9982 22.3336 37.3315 23.6671 31.9982 29.0003C29.665 31.3336 27.9982 34.6671 28.3315 36.0003C28.3315 36.3336 28.3315 36.3336 28.9982 36.6671C30.665 37.3338 32.9982 37.6671 35.3315 34.0003C35.6648 33.6671 35.9982 33.3336 36.6648 33.3336C37.6648 33.3336 37.9981 33.0003 38.9981 32.6669C39.6648 32.3336 40.3314 32.0002 41.3314 31.6669C41.6646 31.6669 41.6646 31.6669 41.9981 31.6669C42.3314 31.6669 42.9981 32.0002 43.3314 32.0002C44.9982 33.6671 47.9982 36.0003 50.9982 38.6671C55.665 42.3338 60.3315 46.3338 62.665 49.3338H62.9982C60.665 42.6671 56.665 31.3336 54.9982 28.3336Z" fill="#1B1B1B"/>
<path d="M78.3347 20C65.3347 20 58.0014 23.3333 57.668 23.3333C57.3347 23.6666 57.0013 24 56.668 24.3333C56.668 24.6666 56.668 25.3333 57.0013 25.6666C59.0013 28.9998 65.668 47.3333 66.668 51.9998C67.0013 52.6666 67.668 53.3331 68.3347 53.3331H78.3347C79.3347 53.3331 80.0014 52.6664 80.0014 51.6664V21.6664C80.0014 20.6667 79.3347 20 78.3347 20Z" fill="#1B1B1B"/>
<path d="M60.3319 52.667C58.9986 49.667 53.3319 45.3337 48.3319 41.3337C45.6653 39.0003 42.9986 37.0003 40.9986 35.3336C40.6653 35.6668 39.9986 35.6668 39.9986 36.0003C38.9986 36.3336 38.6653 36.667 37.3319 36.667C34.6653 40.0003 31.3319 41.3336 27.6653 40.0003C25.9986 39.667 24.9986 38.3336 24.6653 37.0003C23.9986 33.667 26.9986 29.0003 29.332 26.667H22.6653C21.332 33.3337 18.9986 42.0003 17.332 46.667C18.6653 48.0003 19.9988 49.667 20.9988 50.3337C27.332 55.667 34.6655 61.0004 35.9987 62.0004C36.9987 62.6671 38.9988 63.3337 39.9988 63.3337C40.332 63.3337 40.6655 63.3337 40.9987 63.3337L35.6653 58.0003C34.9986 57.3336 34.9986 56.3335 35.6653 55.667C36.332 55.0004 37.332 55.0003 37.9986 55.667L44.6653 62.3337C45.332 63.0004 45.9986 62.667 46.6653 62.667C47.6653 62.3337 47.9986 61.667 48.332 60.667L40.6653 53.0003C39.9986 52.3336 39.9986 51.3336 40.6653 50.667C41.332 50.0004 42.332 50.0003 42.9986 50.667L51.3319 59.0003C51.6652 59.3335 52.9986 59.3335 53.9986 59.0003C54.3319 58.667 54.9986 58.3335 55.3319 57.667L45.9986 48.3336C45.3319 47.6668 45.3319 46.6668 45.9986 46.0003C46.6653 45.3337 47.6653 45.3336 48.3319 46.0003L57.9986 55.667C58.6653 56.0003 59.3319 55.667 59.9986 55.3337C60.3319 55.0003 60.9986 54.0003 60.3319 52.667Z" fill="#1B1B1B"/>
</g>
<defs>
<clipPath id="clip0_941_21458">
<rect width="80" height="80" fill="white"/>
</clipPath>
</defs>
</svg>
