<svg width="48" height="48" viewBox="0 0 48 48" fill="none" xmlns="http://www.w3.org/2000/svg">
<g clip-path="url(#clip0_775_13492)">
<path d="M30.1238 7.81567C28.9226 4.69885 27.4127 2.07385 25.6776 0.0611572C25.1078 0.020874 24.5343 0 23.9579 0C23.3811 0 22.8076 0.020874 22.2382 0.0611572C20.5027 2.07385 18.9928 4.69849 17.792 7.81567C17.4042 8.82202 17.0555 9.86536 16.7461 10.9391H31.1697C30.8599 9.86536 30.5112 8.82202 30.1238 7.81567Z" fill="#1B1B1B"/>
<path d="M16.0397 34.2484H31.8743C32.4796 31.4352 32.8312 28.4579 32.9139 25.4062H15C15.0828 28.4583 15.4343 31.4352 16.0397 34.2484Z" fill="#1B1B1B"/>
<path d="M31.8743 13.7516H16.0397C15.4343 16.5648 15.0828 19.5421 15 22.5938H32.9139C32.8312 19.5417 32.4796 16.5648 31.8743 13.7516Z" fill="#1B1B1B"/>
<path d="M17.7916 40.1844C18.9928 43.3013 20.5027 45.9263 22.2378 47.939C22.8076 47.9792 23.3811 48.0001 23.9579 48.0001C24.5343 48.0001 25.1078 47.9792 25.6776 47.939C27.4127 45.9263 28.9226 43.3016 30.1234 40.1844C30.5112 39.1781 30.8599 38.1348 31.1693 37.061H16.7461C17.0555 38.1348 17.4042 39.1781 17.7916 40.1844Z" fill="#1B1B1B"/>
<path d="M34.7422 13.7516C35.3094 16.5597 35.6478 19.5326 35.7273 22.5938H47.9152C47.7372 19.4916 46.9725 16.5 45.6718 13.7494C45.6582 13.7498 45.645 13.7516 45.6315 13.7516H34.7422Z" fill="#1B1B1B"/>
<path d="M13.1733 34.2484C12.6057 31.4403 12.2673 28.4674 12.1879 25.4062H0C0.177979 28.5084 0.942627 31.5 2.24341 34.2506C2.25696 34.2502 2.27014 34.2484 2.28369 34.2484H13.1733Z" fill="#1B1B1B"/>
<path d="M34.0809 37.061C33.0339 40.9652 31.5237 44.4651 29.6406 47.3252C33.8781 46.3005 37.7654 44.1315 40.9261 40.9707C42.1306 39.7662 43.1897 38.4556 44.0979 37.061H34.0809Z" fill="#1B1B1B"/>
<path d="M13.8334 10.939C14.8807 7.03479 16.3906 3.53491 18.2737 0.674805C14.0366 1.69946 10.1489 3.86853 6.98779 7.0293C5.78369 8.23376 4.72461 9.54443 3.81641 10.939H13.8334Z" fill="#1B1B1B"/>
<path d="M13.8334 37.061H3.81641C4.72461 38.4556 5.78369 39.7662 6.98779 40.9707C10.1489 44.1315 14.0363 46.3005 18.2733 47.3252C16.3906 44.4651 14.8807 40.9652 13.8334 37.061Z" fill="#1B1B1B"/>
<path d="M34.0809 10.939H44.0979C43.1897 9.54443 42.131 8.23376 40.9265 7.0293C37.7654 3.86853 33.8781 1.69946 29.6406 0.674805C31.5237 3.53491 33.0339 7.03479 34.0809 10.939Z" fill="#1B1B1B"/>
<path d="M35.7273 25.4062C35.6478 28.4674 35.3098 31.4403 34.7422 34.2484H45.6315C45.645 34.2484 45.6582 34.2502 45.6718 34.2506C46.9725 31.5 47.7372 28.5084 47.9152 25.4062H35.7273Z" fill="#1B1B1B"/>
<path d="M12.1879 22.5938C12.2673 19.5326 12.6057 16.5597 13.1733 13.7516H2.28369C2.27014 13.7516 2.25696 13.7498 2.24341 13.7494C0.942627 16.5 0.177979 19.4916 0 22.5938H12.1879Z" fill="#1B1B1B"/>
</g>
<defs>
<clipPath id="clip0_775_13492">
<rect width="48" height="48" fill="white"/>
</clipPath>
</defs>
</svg>
