<svg width="48" height="48" viewBox="0 0 48 48" fill="none" xmlns="http://www.w3.org/2000/svg">
<path d="M31.3868 10.6318C31.5145 10.2781 31.6029 9.92433 31.6717 9.58041C32.7723 2.93772 29.5099 2.71171 29.5099 2.71171C29.5099 2.71171 28.9695 1.67011 27.5446 0.883989C26.5915 0.314054 25.2551 -0.11831 23.4961 0.0290869C22.9262 0.0585663 22.3857 0.166657 21.8846 0.333707C21.236 0.549889 20.6464 0.874163 20.1158 1.23774C19.4574 1.65045 18.8384 2.16143 18.2881 2.74119C17.4234 3.62557 16.6471 4.76544 16.313 6.2001C16.0378 7.27119 16.0968 8.38158 16.3326 9.58041C16.3916 9.93416 16.4899 10.2781 16.6176 10.6318C15.9592 10.5729 15.1829 10.9463 15.9101 13.511C16.4407 15.3878 16.932 15.9086 17.3054 15.9381C17.6494 18.1687 19.369 20.9988 22.199 22.0011C23.3585 22.4138 24.6262 22.4138 25.7857 21.9912C28.5666 20.9889 30.3452 18.1589 30.6891 15.9381C31.0625 15.9086 31.5538 15.378 32.0844 13.511C32.8116 10.9463 32.0353 10.5631 31.3868 10.6318Z" fill="#1B1B1B"/>
<path d="M16.4827 40.6222L14.144 40.4552L13.2596 38.2638C13.0925 37.8511 12.5128 37.8511 12.3457 38.2638L11.4614 40.4552L9.12266 40.6222C8.68047 40.6517 8.50359 41.2118 8.83769 41.4968L10.6261 43.0199L10.066 45.3094C9.95791 45.7418 10.4296 46.0857 10.803 45.8499L12.7978 44.6019L14.7925 45.8499C15.1659 46.0857 15.6376 45.7418 15.5295 45.3094L14.9694 43.0199L16.7578 41.4968C17.1017 41.2118 16.9249 40.6615 16.4827 40.6222Z" fill="#1B1B1B"/>
<path d="M38.8772 40.6222L36.5385 40.4552L35.6541 38.2638C35.4871 37.8511 34.9073 37.8511 34.7403 38.2638L33.8559 40.4552L31.5172 40.6222C31.075 40.6517 30.8981 41.2118 31.2322 41.4968L33.0206 43.0199L32.4605 45.3094C32.3524 45.7418 32.8241 46.0857 33.1975 45.8499L35.1923 44.6019L37.1871 45.8499C37.5605 46.0857 38.0321 45.7418 37.924 45.3094L37.3639 43.0199L39.1524 41.4968C39.4865 41.2118 39.3096 40.6615 38.8772 40.6222Z" fill="#1B1B1B"/>
<path d="M27.678 42.6956L25.3393 42.5285L24.4549 40.3372C24.2879 39.9245 23.7081 39.9245 23.541 40.3372L22.6567 42.5285L20.318 42.6956C19.8758 42.7251 19.6989 43.2852 20.033 43.5701L21.8214 45.0932L21.2613 47.3828C21.1532 47.8152 21.6249 48.1591 21.9983 47.9233L23.9931 46.6753L25.9878 47.9233C26.3612 48.1591 26.8329 47.8152 26.7248 47.3828L26.1647 45.0932L27.9531 43.5701C28.2971 43.2852 28.1202 42.7251 27.678 42.6956Z" fill="#1B1B1B"/>
<path d="M36.853 24.6542C32.8733 23.6421 29.6404 21.3623 29.6404 21.3623L27.115 29.3414L26.6433 30.8449L26.6335 30.8252L26.2208 32.1027L24.8844 28.3293C28.1566 23.7698 24.226 23.8091 24 23.819C23.7838 23.8091 19.8434 23.7698 23.1156 28.3293L21.7891 32.1027L21.3764 30.8252L21.3665 30.8449L20.8949 29.3414L18.3695 21.3623C18.3695 21.3623 15.1366 23.6421 11.1568 24.6542C8.18926 25.4108 8.04186 28.8304 8.15978 30.5304C8.15978 30.5304 8.33665 32.8298 8.5037 33.8419C8.5037 33.8419 14.2915 37.6055 24 37.6055C33.6987 37.6055 39.4964 33.8419 39.4964 33.8419C39.6732 32.8298 39.8403 30.5304 39.8403 30.5304C39.9582 28.8304 39.8206 25.4108 36.853 24.6542Z" fill="#1B1B1B"/>
</svg>
