<svg width="48" height="48" viewBox="0 0 48 48" fill="none" xmlns="http://www.w3.org/2000/svg">
<path d="M44 44.8V39.8039C45.0547 39.1824 45.6727 38.0223 45.6 36.8C45.6 35.0328 44.5258 33.6 43.2 33.6C41.8742 33.6 40.8 35.0328 40.8 36.8C40.7273 38.0223 41.3453 39.1824 42.4 39.8039V44.8H36.8V20.4945L32 18.0945V22.4H34.4V24H32V27.2H34.4V28.8H32V32H34.4V33.6H32V36.8H34.4V38.4H32V41.6H34.4V43.2H32V44.8H30.4V12.6031L20.8 9.86094V12.8H26.4V14.4H20.8V17.6H26.4V19.2H20.8V22.4H26.4V24H20.8V27.2H26.4V28.8H20.8V32H26.4V33.6H20.8V36.8H26.4V38.4H20.8V41.6H26.4V43.2H20.8V44.8H19.2V0H4.8V3.2H12V4.8H4.8V8H12V9.6H4.8V12.8H12V14.4H4.8V17.6H12V19.2H4.8V22.4H12V24H4.8V27.2H12V28.8H4.8V32H12V33.6H4.8V36.8H12V38.4H4.8V41.6H12V43.2H4.8V44.8H0V46.4H48V44.8H44Z" fill="#1B1B1B"/>
</svg>
