<svg width="48" height="48" viewBox="0 0 48 48" fill="none" xmlns="http://www.w3.org/2000/svg">
<g clip-path="url(#clip0_775_13466)">
<path d="M21.9983 32.4823C21.9708 32.1702 21.9423 31.8474 21.846 31.6585C21.7409 31.4526 21.4883 31.2307 21.244 31.0161C20.8306 30.6532 20.362 30.2417 20.2674 29.6404C20.1717 29.0335 20.4926 28.4953 20.7759 28.0204C20.941 27.7435 21.1116 27.4571 21.1468 27.2345C21.181 27.0176 21.1073 26.6965 21.036 26.3861C21.0353 26.3827 21.0344 26.3793 21.0337 26.3759L17.1328 22.4751C11.0891 28.2661 5.2855 32.9707 0.953125 35.6013C1.36394 35.8191 1.84389 36.1291 2.40552 36.5377C3.80934 37.5588 5.52288 39.0615 7.2305 40.7693C8.93823 42.477 10.4412 44.1907 11.4623 45.5946C11.8737 46.1602 12.1851 46.643 12.4031 47.0558C14.5347 43.5364 18.0755 38.9971 22.5228 34.0907C22.1019 33.6454 22.0464 33.0286 21.9983 32.4823Z" fill="#1B1B1B"/>
<path d="M31.9994 35.6181C31.7822 35.7288 31.5405 35.7826 31.2602 35.7826C30.9297 35.7826 30.603 35.7075 30.2869 35.635C30.0194 35.5735 29.7666 35.5156 29.561 35.5156C29.5161 35.5156 29.4747 35.5184 29.4383 35.5242C29.2158 35.5593 28.9295 35.73 28.6527 35.8951C28.2396 36.1414 27.7714 36.4206 27.2524 36.4207C27.1785 36.4207 27.1046 36.4149 27.0329 36.4037C26.9595 36.3922 26.889 36.3748 26.821 36.3529L26.5 40.1686L28.9243 38.5625C28.9346 38.5558 28.9457 38.5517 28.9563 38.5457C28.9738 38.5357 28.991 38.5255 29.0093 38.5176C29.0251 38.511 29.0413 38.5068 29.0573 38.5018C29.0731 38.4968 29.0885 38.4912 29.1046 38.4879C29.1227 38.4841 29.1407 38.4827 29.1589 38.4809C29.1738 38.4795 29.1885 38.4773 29.2035 38.4771C29.2217 38.4768 29.2394 38.4788 29.2574 38.4804C29.2728 38.4819 29.2881 38.4826 29.3033 38.4853C29.3204 38.4884 29.3369 38.4936 29.3536 38.4985C29.369 38.5028 29.3844 38.5066 29.3995 38.5125C29.4164 38.519 29.4322 38.5278 29.4485 38.5362C29.4621 38.5433 29.476 38.5495 29.4892 38.5579C29.5062 38.5687 29.5218 38.5819 29.5376 38.5949C29.547 38.6025 29.5572 38.6083 29.566 38.6166L31.6874 40.6053L32.113 35.5524C32.0765 35.5756 32.0389 35.5978 31.9994 35.6181Z" fill="#1B1B1B"/>
<path d="M6.49701 41.5029C3.39491 38.401 0.876439 36.5916 0 36.2949C0.297682 37.1723 2.10734 39.6906 5.20871 42.7922C8.31009 45.8935 10.8283 47.7029 11.7053 48C11.4082 47.123 9.59869 44.6048 6.49701 41.5029Z" fill="#1B1B1B"/>
<path d="M35.4861 32.176L40.5388 31.7506L38.5503 29.6292C38.5416 29.6199 38.5354 29.6093 38.5275 29.5994C38.5151 29.5842 38.5023 29.5692 38.4917 29.5527C38.4829 29.5389 38.4765 29.5244 38.469 29.5101C38.4611 29.4946 38.4527 29.4795 38.4464 29.4634C38.44 29.4475 38.436 29.431 38.4314 29.4146C38.427 29.3989 38.422 29.3833 38.4191 29.3674C38.4161 29.3509 38.4152 29.3344 38.4138 29.3176C38.4123 29.301 38.4105 29.2846 38.4107 29.2679C38.4109 29.2514 38.4132 29.2352 38.415 29.2187C38.4169 29.2021 38.4179 29.1855 38.4215 29.1689C38.4251 29.1514 38.4311 29.1345 38.4365 29.1174C38.4413 29.1027 38.445 29.0879 38.4512 29.0734C38.4592 29.0542 38.4699 29.0364 38.4803 29.0181C38.486 29.0081 38.4899 28.9976 38.4962 28.9879L40.1025 26.563L36.2864 26.8842C36.3083 26.9522 36.3257 27.0226 36.3372 27.096C36.4329 27.7031 36.1118 28.2414 35.8286 28.7165C35.6637 28.9931 35.493 29.2792 35.4578 29.5017C35.4237 29.7187 35.4974 30.0399 35.5686 30.3505C35.6932 30.8928 35.8344 31.5079 35.5518 32.0625C35.5315 32.102 35.5094 32.1395 35.4861 32.176Z" fill="#1B1B1B"/>
<path d="M19.9186 16.1727L16.1094 19.9821L17.5133 21.386C17.5139 21.3868 17.5148 21.3872 17.5155 21.3881C17.516 21.3886 17.5163 21.3892 17.5168 21.3897L20.979 24.8519C21 24.7919 21.0242 24.7324 21.0541 24.6736C21.3264 24.1396 21.8939 23.8953 22.3946 23.68C22.6981 23.5494 23.0119 23.4143 23.1815 23.2448C23.3509 23.0754 23.4859 22.7616 23.6165 22.4582C23.832 21.9575 24.0761 21.3899 24.6102 21.1177C24.6676 21.0884 24.727 21.0637 24.788 21.0423L19.9186 16.1727Z" fill="#1B1B1B"/>
<path d="M28.3051 24.0467C25.9226 24.0467 23.9844 25.985 23.9844 28.3675C23.9844 30.75 25.9226 32.6884 28.3051 32.6884C30.6876 32.6884 32.626 30.75 32.626 28.3675C32.6261 25.985 30.6877 24.0467 28.3051 24.0467Z" fill="#1B1B1B"/>
<path d="M42.756 5.24307C39.4898 1.97739 36.87 0.143548 36.1327 0C33.6937 4.35262 28.5982 10.7375 22.4102 17.1977L26.3111 21.0986C26.3142 21.0993 26.3175 21.1 26.3207 21.1008C26.5882 21.1621 26.8408 21.2201 27.0463 21.2201C27.0915 21.2201 27.1329 21.2172 27.1695 21.2114C27.3926 21.1763 27.6789 21.0056 27.9557 20.8406C28.3687 20.5942 28.8369 20.3151 29.3561 20.3151C29.43 20.3151 29.5038 20.3209 29.5754 20.3322C30.1769 20.4269 30.5883 20.8956 30.9513 21.309C31.1657 21.5533 31.3876 21.8059 31.5936 21.9109C31.7823 22.007 32.1051 22.0354 32.4172 22.0629C32.9624 22.111 33.5782 22.1663 34.0234 22.5849C39.4144 17.6941 44.3509 13.9043 47.9981 11.8568C47.84 11.1061 46.0071 8.49432 42.756 5.24307Z" fill="#1B1B1B"/>
<path d="M34.9394 28.1848C35.1428 27.8444 35.3515 27.4936 35.3141 27.2569C35.2777 27.0265 34.9736 26.7587 34.6778 26.5002C34.3602 26.2211 34.0322 25.9325 33.836 25.5495C33.6482 25.181 33.6118 24.7556 33.5755 24.3455C33.5402 23.9438 33.504 23.5297 33.3233 23.3491C33.1427 23.1684 32.7275 23.1321 32.3268 23.0968C31.9157 23.0605 31.4912 23.0231 31.1227 22.8353C30.7397 22.6401 30.4512 22.3111 30.172 21.9935C29.9125 21.6987 29.6447 21.3936 29.4143 21.3572C29.1818 21.3209 28.8278 21.5295 28.4874 21.7319C28.1262 21.9478 27.7525 22.1699 27.3321 22.2364C27.2419 22.2509 27.1464 22.2582 27.0466 22.2582C26.7239 22.2582 26.401 22.1845 26.0887 22.1129C25.8178 22.0506 25.5614 21.9914 25.3487 21.9914C25.2366 21.9914 25.1483 22.008 25.0809 22.0423C24.8806 22.145 24.7228 22.5125 24.5692 22.8685C24.3999 23.2619 24.2255 23.6687 23.9153 23.9791C23.6049 24.2894 23.198 24.4638 22.8047 24.633C22.4486 24.7866 22.0802 24.9455 21.9785 25.1448C21.8674 25.3637 21.9598 25.7654 22.048 26.1537C22.1414 26.5606 22.2379 26.9809 22.1726 27.3961C22.1061 27.8165 21.884 28.1901 21.6681 28.5513C21.4657 28.8918 21.2561 29.2426 21.2934 29.4792C21.3297 29.7097 21.6349 29.9775 21.9297 30.2359C22.2473 30.515 22.5763 30.8037 22.7715 31.1867C22.9593 31.5551 22.9967 31.9797 23.033 32.3907C23.0683 32.7924 23.1046 33.2065 23.2852 33.3871C23.4658 33.5667 23.88 33.6041 24.2806 33.6394C24.6916 33.6747 25.1162 33.7131 25.4846 33.9C25.8687 34.0961 26.1572 34.4241 26.4354 34.7417C26.6949 35.0375 26.9627 35.3427 27.1931 35.379C27.4288 35.4153 27.7806 35.2067 28.1201 35.0043C28.4812 34.7884 28.856 34.5654 29.2763 34.4989C29.3656 34.4854 29.4611 34.4782 29.5607 34.4782C29.8834 34.4782 30.2063 34.5519 30.5187 34.6234C30.7896 34.6858 31.047 34.7448 31.2599 34.7448C31.372 34.7448 31.4591 34.7283 31.5276 34.6941C31.7269 34.5924 31.8856 34.2239 32.0383 33.8679C32.1327 33.6489 32.2293 33.4268 32.3497 33.218L32.3507 33.217C32.4462 33.0509 32.5561 32.8942 32.6933 32.7572C32.8303 32.6202 32.986 32.5112 33.1499 32.4157C33.152 32.4157 33.153 32.4135 33.1551 32.4135C33.3627 32.2932 33.5858 32.1966 33.8039 32.1021C34.1599 31.9496 34.5273 31.7907 34.6301 31.5915C34.7411 31.3726 34.6487 30.9709 34.5595 30.5826C34.4661 30.1757 34.3695 29.7553 34.4349 29.3402C34.5015 28.9197 34.7245 28.546 34.9394 28.1848ZM28.3039 33.7264C25.3499 33.7264 22.945 31.3225 22.945 28.3675C22.945 25.4125 25.3499 23.0086 28.3039 23.0086C31.2589 23.0086 33.6628 25.4126 33.6628 28.3675C33.6628 31.3224 31.2589 33.7264 28.3039 33.7264Z" fill="#1B1B1B"/>
</g>
<defs>
<clipPath id="clip0_775_13466">
<rect width="48" height="48" fill="white"/>
</clipPath>
</defs>
</svg>
